<svg width="800" height="360" viewBox="0 0 800 360" fill="none" xmlns="http://www.w3.org/2000/svg">
<g clip-path="url(#clip0_5_1406)">
<path d="M247.736 205V159.56H267C269.091 159.56 271.011 159.987 272.76 160.84C274.509 161.693 276.024 162.845 277.304 164.296C278.627 165.747 279.651 167.368 280.376 169.16C281.101 170.952 281.464 172.787 281.464 174.664C281.464 177.224 280.867 179.656 279.672 181.96C278.477 184.264 276.835 186.141 274.744 187.592C272.653 189.043 270.179 189.768 267.32 189.768H256.568V205H247.736ZM256.568 182.024H266.808C267.875 182.024 268.835 181.725 269.688 181.128C270.541 180.531 271.224 179.677 271.736 178.568C272.248 177.416 272.504 176.115 272.504 174.664C272.504 173.085 272.205 171.741 271.608 170.632C271.053 169.523 270.307 168.691 269.368 168.136C268.472 167.581 267.491 167.304 266.424 167.304H256.568V182.024ZM304.971 159.56H313.931L330.635 205H321.547L317.323 193.672H301.451L297.29 205H288.202L304.971 159.56ZM315.723 187.464L309.451 168.712L302.923 187.464H315.723ZM343.938 205V159.56H360.451C365.4 159.56 369.539 160.584 372.867 162.632C376.195 164.637 378.691 167.368 380.354 170.824C382.019 174.237 382.851 178.035 382.851 182.216C382.851 186.824 381.933 190.835 380.099 194.248C378.264 197.661 375.661 200.307 372.291 202.184C368.963 204.061 365.016 205 360.451 205H343.938ZM373.955 182.216C373.955 179.272 373.421 176.691 372.354 174.472C371.288 172.211 369.752 170.461 367.747 169.224C365.741 167.944 363.309 167.304 360.451 167.304H352.771V197.256H360.451C363.352 197.256 365.805 196.616 367.811 195.336C369.816 194.013 371.331 192.221 372.354 189.96C373.421 187.656 373.955 185.075 373.955 182.216ZM435.127 205V175.176L423.479 197.384H418.551L406.903 175.176V205H398.071V159.56H407.543L420.983 185.416L434.551 159.56H443.959V205H435.127ZM474.118 159.56H483.078L499.782 205H490.694L486.47 193.672H470.598L466.438 205H457.35L474.118 159.56ZM484.87 187.464L478.598 168.712L472.07 187.464H484.87ZM521.918 175.816V205H513.086V159.56H520.126L543.614 189.512V159.624H552.446V205H545.086L521.918 175.816ZM582.57 159.56H591.53L608.234 205H599.146L594.922 193.672H579.05L574.89 205H565.802L582.57 159.56ZM593.322 187.464L587.05 168.712L580.522 187.464H593.322ZM633.89 159.56H642.85L659.554 205H650.466L646.242 193.672H630.37L626.21 205H617.122L633.89 159.56ZM644.642 187.464L638.37 168.712L631.842 187.464H644.642ZM709.466 193.288C709.466 195.848 708.805 198.003 707.482 199.752C706.16 201.459 704.368 202.76 702.106 203.656C699.888 204.552 697.456 205 694.81 205H672.858V159.56H697.178C699.312 159.56 701.146 160.136 702.682 161.288C704.261 162.397 705.456 163.848 706.266 165.64C707.12 167.389 707.547 169.224 707.547 171.144C707.547 173.32 706.992 175.389 705.882 177.352C704.773 179.315 703.152 180.765 701.018 181.704C703.621 182.472 705.669 183.859 707.162 185.864C708.698 187.869 709.466 190.344 709.466 193.288ZM700.57 191.624C700.57 190.472 700.336 189.448 699.866 188.552C699.397 187.613 698.757 186.888 697.946 186.376C697.178 185.821 696.282 185.544 695.258 185.544H681.69V197.512H694.81C695.877 197.512 696.837 197.256 697.69 196.744C698.586 196.189 699.29 195.464 699.802 194.568C700.314 193.672 700.57 192.691 700.57 191.624ZM681.69 167.112V178.568H693.466C694.448 178.568 695.344 178.333 696.154 177.864C696.965 177.395 697.605 176.733 698.074 175.88C698.586 175.027 698.842 174.003 698.842 172.808C698.842 171.656 698.608 170.653 698.138 169.8C697.712 168.947 697.114 168.285 696.346 167.816C695.621 167.347 694.789 167.112 693.85 167.112H681.69ZM762.887 159.56V205H754.119V185.608H733.511V205H724.679V159.56H733.511V177.928H754.119V159.56H762.887Z" fill="#009FB0"/>
<path d="M244.776 245V227.96H250.968C252.824 227.96 254.376 228.344 255.624 229.112C256.872 229.864 257.808 230.888 258.432 232.184C259.056 233.464 259.368 234.888 259.368 236.456C259.368 238.184 259.024 239.688 258.336 240.968C257.648 242.248 256.672 243.24 255.408 243.944C254.16 244.648 252.68 245 250.968 245H244.776ZM256.032 236.456C256.032 235.352 255.832 234.384 255.432 233.552C255.032 232.704 254.456 232.048 253.704 231.584C252.952 231.104 252.04 230.864 250.968 230.864H248.088V242.096H250.968C252.056 242.096 252.976 241.856 253.728 241.376C254.48 240.88 255.048 240.208 255.432 239.36C255.832 238.496 256.032 237.528 256.032 236.456ZM269.636 245.24C268.628 245.24 267.716 245.072 266.9 244.736C266.084 244.384 265.388 243.912 264.812 243.32C264.236 242.712 263.788 242.024 263.468 241.256C263.164 240.472 263.012 239.648 263.012 238.784C263.012 237.584 263.276 236.488 263.804 235.496C264.348 234.504 265.116 233.712 266.108 233.12C267.116 232.512 268.3 232.208 269.66 232.208C271.036 232.208 272.212 232.512 273.188 233.12C274.164 233.712 274.908 234.504 275.42 235.496C275.948 236.472 276.212 237.528 276.212 238.664C276.212 238.856 276.204 239.056 276.188 239.264C276.172 239.456 276.156 239.616 276.14 239.744H266.42C266.484 240.384 266.668 240.944 266.972 241.424C267.292 241.904 267.692 242.272 268.172 242.528C268.668 242.768 269.196 242.888 269.756 242.888C270.396 242.888 270.996 242.736 271.556 242.432C272.132 242.112 272.524 241.696 272.732 241.184L275.492 241.952C275.188 242.592 274.748 243.16 274.172 243.656C273.612 244.152 272.948 244.544 272.18 244.832C271.412 245.104 270.564 245.24 269.636 245.24ZM266.348 237.704H272.924C272.86 237.064 272.676 236.512 272.372 236.048C272.084 235.568 271.7 235.2 271.22 234.944C270.74 234.672 270.204 234.536 269.612 234.536C269.036 234.536 268.508 234.672 268.028 234.944C267.564 235.2 267.18 235.568 266.876 236.048C266.588 236.512 266.412 237.064 266.348 237.704ZM292.019 245H288.803V237.944C288.803 236.936 288.627 236.2 288.275 235.736C287.923 235.272 287.435 235.04 286.811 235.04C286.379 235.04 285.939 235.152 285.491 235.376C285.059 235.6 284.667 235.912 284.315 236.312C283.963 236.696 283.707 237.144 283.547 237.656V245H280.331V232.424H283.235V234.752C283.555 234.208 283.963 233.752 284.459 233.384C284.955 233 285.523 232.712 286.163 232.52C286.819 232.312 287.507 232.208 288.227 232.208C289.011 232.208 289.651 232.352 290.147 232.64C290.659 232.912 291.043 233.288 291.299 233.768C291.571 234.232 291.755 234.76 291.851 235.352C291.963 235.944 292.019 236.544 292.019 237.152V245ZM304.441 244.352C304.169 244.464 303.841 244.592 303.457 244.736C303.073 244.88 302.657 244.992 302.209 245.072C301.777 245.168 301.337 245.216 300.889 245.216C300.297 245.216 299.753 245.112 299.257 244.904C298.761 244.696 298.361 244.368 298.057 243.92C297.769 243.456 297.625 242.856 297.625 242.12V234.896H295.969V232.424H297.625V228.344H300.841V232.424H303.481V234.896H300.841V241.04C300.857 241.472 300.977 241.784 301.201 241.976C301.425 242.168 301.705 242.264 302.041 242.264C302.377 242.264 302.705 242.208 303.025 242.096C303.345 241.984 303.601 241.888 303.793 241.808L304.441 244.352ZM307.412 241.28C307.412 240.464 307.636 239.752 308.084 239.144C308.548 238.52 309.188 238.04 310.004 237.704C310.82 237.368 311.756 237.2 312.812 237.2C313.34 237.2 313.876 237.24 314.42 237.32C314.964 237.4 315.436 237.528 315.836 237.704V237.032C315.836 236.232 315.596 235.616 315.116 235.184C314.652 234.752 313.956 234.536 313.028 234.536C312.34 234.536 311.684 234.656 311.06 234.896C310.436 235.136 309.78 235.488 309.092 235.952L308.06 233.84C308.892 233.296 309.74 232.888 310.604 232.616C311.484 232.344 312.404 232.208 313.364 232.208C315.156 232.208 316.548 232.656 317.54 233.552C318.548 234.448 319.052 235.728 319.052 237.392V241.4C319.052 241.736 319.108 241.976 319.22 242.12C319.348 242.264 319.548 242.352 319.82 242.384V245C319.532 245.048 319.268 245.088 319.028 245.12C318.804 245.152 318.612 245.168 318.452 245.168C317.812 245.168 317.324 245.024 316.988 244.736C316.668 244.448 316.468 244.096 316.388 243.68L316.316 243.032C315.772 243.736 315.092 244.28 314.276 244.664C313.46 245.048 312.628 245.24 311.78 245.24C310.948 245.24 310.196 245.072 309.524 244.736C308.868 244.384 308.348 243.912 307.964 243.32C307.596 242.712 307.412 242.032 307.412 241.28ZM315.236 241.928C315.412 241.736 315.556 241.544 315.668 241.352C315.78 241.16 315.836 240.984 315.836 240.824V239.552C315.452 239.392 315.036 239.272 314.588 239.192C314.14 239.096 313.716 239.048 313.316 239.048C312.484 239.048 311.796 239.232 311.252 239.6C310.724 239.952 310.46 240.424 310.46 241.016C310.46 241.336 310.548 241.64 310.724 241.928C310.9 242.216 311.156 242.448 311.492 242.624C311.828 242.8 312.228 242.888 312.692 242.888C313.172 242.888 313.644 242.8 314.108 242.624C314.572 242.432 314.948 242.2 315.236 241.928ZM324.193 227.48H327.409V240.968C327.409 241.544 327.505 241.936 327.697 242.144C327.889 242.336 328.153 242.432 328.489 242.432C328.745 242.432 329.009 242.4 329.281 242.336C329.553 242.272 329.793 242.192 330.001 242.096L330.433 244.544C330.001 244.752 329.497 244.912 328.921 245.024C328.345 245.136 327.825 245.192 327.361 245.192C326.353 245.192 325.569 244.928 325.009 244.4C324.465 243.856 324.193 243.088 324.193 242.096V227.48ZM340.544 236.36C340.544 235.32 340.728 234.304 341.096 233.312C341.48 232.304 342.032 231.392 342.752 230.576C343.472 229.744 344.352 229.088 345.392 228.608C346.432 228.112 347.616 227.864 348.944 227.864C350.512 227.864 351.864 228.208 353 228.896C354.152 229.584 355.008 230.48 355.568 231.584L353.024 233.336C352.736 232.696 352.36 232.192 351.896 231.824C351.432 231.44 350.936 231.176 350.408 231.032C349.88 230.872 349.36 230.792 348.848 230.792C348.016 230.792 347.288 230.96 346.664 231.296C346.056 231.632 345.544 232.072 345.128 232.616C344.712 233.16 344.4 233.768 344.192 234.44C344 235.112 343.904 235.784 343.904 236.456C343.904 237.208 344.024 237.936 344.264 238.64C344.504 239.328 344.84 239.944 345.272 240.488C345.72 241.016 346.248 241.44 346.856 241.76C347.48 242.064 348.16 242.216 348.896 242.216C349.424 242.216 349.96 242.128 350.504 241.952C351.048 241.776 351.552 241.496 352.016 241.112C352.48 240.728 352.84 240.232 353.096 239.624L355.808 241.184C355.472 242.032 354.92 242.752 354.152 243.344C353.4 243.936 352.552 244.384 351.608 244.688C350.664 244.992 349.728 245.144 348.8 245.144C347.584 245.144 346.472 244.896 345.464 244.4C344.456 243.888 343.584 243.216 342.848 242.384C342.128 241.536 341.56 240.592 341.144 239.552C340.744 238.496 340.544 237.432 340.544 236.36ZM359.853 227.48H363.069V240.968C363.069 241.544 363.165 241.936 363.357 242.144C363.549 242.336 363.813 242.432 364.149 242.432C364.405 242.432 364.669 242.4 364.941 242.336C365.213 242.272 365.453 242.192 365.661 242.096L366.093 244.544C365.661 244.752 365.157 244.912 364.581 245.024C364.005 245.136 363.485 245.192 363.021 245.192C362.013 245.192 361.229 244.928 360.669 244.4C360.125 243.856 359.853 243.088 359.853 242.096V227.48ZM369.654 245V232.424H372.87V245H369.654ZM369.654 230.672V227.48H372.87V230.672H369.654ZM389.619 245H386.403V237.944C386.403 236.936 386.227 236.2 385.875 235.736C385.523 235.272 385.035 235.04 384.411 235.04C383.979 235.04 383.539 235.152 383.091 235.376C382.659 235.6 382.267 235.912 381.915 236.312C381.563 236.696 381.307 237.144 381.147 237.656V245H377.931V232.424H380.835V234.752C381.155 234.208 381.563 233.752 382.059 233.384C382.555 233 383.123 232.712 383.763 232.52C384.419 232.312 385.107 232.208 385.827 232.208C386.611 232.208 387.251 232.352 387.747 232.64C388.259 232.912 388.643 233.288 388.899 233.768C389.171 234.232 389.355 234.76 389.451 235.352C389.563 235.944 389.619 236.544 389.619 237.152V245ZM394.576 245V232.424H397.792V245H394.576ZM394.576 230.672V227.48H397.792V230.672H394.576ZM408.709 245.24C407.685 245.24 406.765 245.072 405.949 244.736C405.133 244.384 404.437 243.904 403.861 243.296C403.285 242.672 402.837 241.968 402.517 241.184C402.213 240.4 402.061 239.576 402.061 238.712C402.061 237.528 402.325 236.448 402.853 235.472C403.397 234.48 404.165 233.688 405.157 233.096C406.149 232.504 407.325 232.208 408.685 232.208C410.045 232.208 411.213 232.504 412.189 233.096C413.165 233.688 413.893 234.464 414.373 235.424L411.229 236.384C410.957 235.92 410.597 235.568 410.149 235.328C409.701 235.072 409.205 234.944 408.661 234.944C408.053 234.944 407.493 235.104 406.981 235.424C406.485 235.728 406.093 236.168 405.805 236.744C405.517 237.304 405.373 237.96 405.373 238.712C405.373 239.448 405.517 240.104 405.805 240.68C406.109 241.24 406.509 241.688 407.005 242.024C407.501 242.344 408.053 242.504 408.661 242.504C409.045 242.504 409.405 242.44 409.741 242.312C410.093 242.184 410.405 242.008 410.677 241.784C410.949 241.56 411.149 241.304 411.277 241.016L414.421 241.976C414.133 242.6 413.709 243.16 413.149 243.656C412.605 244.152 411.957 244.544 411.205 244.832C410.469 245.104 409.637 245.24 408.709 245.24ZM430.679 227.96H434.039L440.303 245H436.895L435.311 240.752H429.359L427.799 245H424.391L430.679 227.96ZM434.711 238.424L432.359 231.392L429.911 238.424H434.711ZM455.708 245H452.492V237.944C452.492 236.936 452.316 236.2 451.964 235.736C451.612 235.272 451.124 235.04 450.5 235.04C450.068 235.04 449.628 235.152 449.18 235.376C448.748 235.6 448.356 235.912 448.004 236.312C447.652 236.696 447.396 237.144 447.236 237.656V245H444.02V232.424H446.924V234.752C447.244 234.208 447.652 233.752 448.148 233.384C448.644 233 449.212 232.712 449.852 232.52C450.508 232.312 451.196 232.208 451.916 232.208C452.7 232.208 453.34 232.352 453.836 232.64C454.348 232.912 454.732 233.288 454.988 233.768C455.26 234.232 455.444 234.76 455.54 235.352C455.652 235.944 455.708 236.544 455.708 237.152V245ZM459.897 238.712C459.897 237.496 460.137 236.4 460.617 235.424C461.097 234.432 461.761 233.648 462.609 233.072C463.457 232.496 464.425 232.208 465.513 232.208C466.441 232.208 467.273 232.44 468.009 232.904C468.761 233.352 469.345 233.928 469.761 234.632V227.48H472.977V241.4C472.977 241.736 473.033 241.976 473.145 242.12C473.257 242.264 473.449 242.352 473.721 242.384V245C473.161 245.112 472.705 245.168 472.353 245.168C471.777 245.168 471.297 245.024 470.913 244.736C470.545 244.448 470.337 244.072 470.289 243.608L470.241 242.816C469.777 243.6 469.145 244.2 468.345 244.616C467.561 245.032 466.737 245.24 465.873 245.24C465.009 245.24 464.209 245.072 463.473 244.736C462.753 244.4 462.121 243.936 461.577 243.344C461.049 242.752 460.633 242.064 460.329 241.28C460.041 240.48 459.897 239.624 459.897 238.712ZM469.761 240.392V237.392C469.601 236.928 469.345 236.512 468.993 236.144C468.641 235.776 468.249 235.488 467.817 235.28C467.385 235.056 466.953 234.944 466.521 234.944C466.025 234.944 465.577 235.048 465.177 235.256C464.777 235.464 464.425 235.744 464.121 236.096C463.833 236.448 463.609 236.856 463.449 237.32C463.305 237.784 463.233 238.272 463.233 238.784C463.233 239.296 463.313 239.784 463.473 240.248C463.649 240.696 463.897 241.088 464.217 241.424C464.537 241.76 464.905 242.024 465.321 242.216C465.753 242.408 466.217 242.504 466.713 242.504C467.017 242.504 467.321 242.456 467.625 242.36C467.945 242.248 468.241 242.104 468.513 241.928C468.801 241.736 469.049 241.512 469.257 241.256C469.481 240.984 469.649 240.696 469.761 240.392ZM486.531 245V227.96H489.843V245H486.531ZM514.782 245H511.566V237.944C511.566 236.952 511.39 236.224 511.038 235.76C510.702 235.28 510.23 235.04 509.622 235.04C508.998 235.04 508.398 235.288 507.822 235.784C507.262 236.264 506.862 236.896 506.622 237.68V245H503.406V237.944C503.406 236.936 503.23 236.2 502.878 235.736C502.542 235.272 502.07 235.04 501.462 235.04C500.838 235.04 500.238 235.28 499.662 235.76C499.102 236.24 498.702 236.872 498.462 237.656V245H495.246V232.424H498.15V234.752C498.63 233.936 499.27 233.312 500.07 232.88C500.87 232.432 501.79 232.208 502.83 232.208C503.87 232.208 504.678 232.464 505.254 232.976C505.846 233.488 506.222 234.12 506.382 234.872C506.894 234.008 507.542 233.352 508.326 232.904C509.126 232.44 510.022 232.208 511.014 232.208C511.798 232.208 512.43 232.352 512.91 232.64C513.406 232.912 513.79 233.288 514.062 233.768C514.334 234.232 514.518 234.76 514.614 235.352C514.726 235.944 514.782 236.544 514.782 237.152V245ZM527.278 245.24C526.302 245.24 525.438 245.024 524.686 244.592C523.95 244.144 523.374 243.544 522.958 242.792V250.112H519.742V232.424H522.55V234.584C523.03 233.848 523.638 233.272 524.374 232.856C525.11 232.424 525.95 232.208 526.894 232.208C527.742 232.208 528.518 232.376 529.222 232.712C529.942 233.048 530.566 233.52 531.094 234.128C531.622 234.72 532.03 235.408 532.318 236.192C532.622 236.96 532.774 237.792 532.774 238.688C532.774 239.904 532.534 241.008 532.054 242C531.59 242.992 530.942 243.784 530.11 244.376C529.294 244.952 528.35 245.24 527.278 245.24ZM526.198 242.504C526.694 242.504 527.142 242.4 527.542 242.192C527.942 241.984 528.286 241.704 528.574 241.352C528.878 240.984 529.102 240.576 529.246 240.128C529.406 239.664 529.486 239.184 529.486 238.688C529.486 238.16 529.398 237.672 529.222 237.224C529.062 236.776 528.822 236.384 528.502 236.048C528.182 235.696 527.806 235.424 527.374 235.232C526.958 235.04 526.502 234.944 526.006 234.944C525.702 234.944 525.39 235 525.07 235.112C524.766 235.208 524.47 235.352 524.182 235.544C523.894 235.736 523.638 235.96 523.414 236.216C523.206 236.472 523.054 236.752 522.958 237.056V240.008C523.15 240.472 523.406 240.896 523.726 241.28C524.062 241.664 524.446 241.968 524.878 242.192C525.31 242.4 525.75 242.504 526.198 242.504ZM537.089 227.48H540.305V240.968C540.305 241.544 540.401 241.936 540.593 242.144C540.785 242.336 541.049 242.432 541.385 242.432C541.641 242.432 541.905 242.4 542.177 242.336C542.449 242.272 542.689 242.192 542.897 242.096L543.329 244.544C542.897 244.752 542.393 244.912 541.817 245.024C541.241 245.136 540.721 245.192 540.257 245.192C539.249 245.192 538.465 244.928 537.905 244.4C537.361 243.856 537.089 243.088 537.089 242.096V227.48ZM546.026 241.28C546.026 240.464 546.25 239.752 546.698 239.144C547.162 238.52 547.802 238.04 548.618 237.704C549.434 237.368 550.37 237.2 551.426 237.2C551.954 237.2 552.49 237.24 553.034 237.32C553.578 237.4 554.05 237.528 554.45 237.704V237.032C554.45 236.232 554.21 235.616 553.73 235.184C553.266 234.752 552.57 234.536 551.642 234.536C550.954 234.536 550.298 234.656 549.674 234.896C549.05 235.136 548.394 235.488 547.706 235.952L546.674 233.84C547.506 233.296 548.354 232.888 549.218 232.616C550.098 232.344 551.018 232.208 551.978 232.208C553.77 232.208 555.162 232.656 556.154 233.552C557.162 234.448 557.666 235.728 557.666 237.392V241.4C557.666 241.736 557.722 241.976 557.834 242.12C557.962 242.264 558.162 242.352 558.434 242.384V245C558.146 245.048 557.882 245.088 557.642 245.12C557.418 245.152 557.226 245.168 557.066 245.168C556.426 245.168 555.938 245.024 555.602 244.736C555.282 244.448 555.082 244.096 555.002 243.68L554.93 243.032C554.386 243.736 553.706 244.28 552.89 244.664C552.074 245.048 551.242 245.24 550.394 245.24C549.562 245.24 548.81 245.072 548.138 244.736C547.482 244.384 546.962 243.912 546.578 243.32C546.21 242.712 546.026 242.032 546.026 241.28ZM553.85 241.928C554.026 241.736 554.17 241.544 554.282 241.352C554.394 241.16 554.45 240.984 554.45 240.824V239.552C554.066 239.392 553.65 239.272 553.202 239.192C552.754 239.096 552.33 239.048 551.93 239.048C551.098 239.048 550.41 239.232 549.866 239.6C549.338 239.952 549.074 240.424 549.074 241.016C549.074 241.336 549.162 241.64 549.338 241.928C549.514 242.216 549.77 242.448 550.106 242.624C550.442 242.8 550.842 242.888 551.306 242.888C551.786 242.888 552.258 242.8 552.722 242.624C553.186 242.432 553.562 242.2 553.85 241.928ZM574.519 245H571.303V237.944C571.303 236.936 571.127 236.2 570.775 235.736C570.423 235.272 569.935 235.04 569.311 235.04C568.879 235.04 568.439 235.152 567.991 235.376C567.559 235.6 567.167 235.912 566.815 236.312C566.463 236.696 566.207 237.144 566.047 237.656V245H562.831V232.424H565.735V234.752C566.055 234.208 566.463 233.752 566.959 233.384C567.455 233 568.023 232.712 568.663 232.52C569.319 232.312 570.007 232.208 570.727 232.208C571.511 232.208 572.151 232.352 572.647 232.64C573.159 232.912 573.543 233.288 573.799 233.768C574.071 234.232 574.255 234.76 574.351 235.352C574.463 235.944 574.519 236.544 574.519 237.152V245ZM586.942 244.352C586.67 244.464 586.342 244.592 585.958 244.736C585.574 244.88 585.158 244.992 584.71 245.072C584.278 245.168 583.838 245.216 583.39 245.216C582.798 245.216 582.254 245.112 581.758 244.904C581.262 244.696 580.862 244.368 580.558 243.92C580.27 243.456 580.126 242.856 580.126 242.12V234.896H578.47V232.424H580.126V228.344H583.342V232.424H585.982V234.896H583.342V241.04C583.358 241.472 583.478 241.784 583.702 241.976C583.926 242.168 584.206 242.264 584.542 242.264C584.878 242.264 585.206 242.208 585.526 242.096C585.846 241.984 586.102 241.888 586.294 241.808L586.942 244.352ZM604.558 245.24C603.534 245.24 602.614 245.072 601.798 244.736C600.982 244.384 600.286 243.904 599.71 243.296C599.134 242.672 598.686 241.968 598.366 241.184C598.062 240.4 597.91 239.576 597.91 238.712C597.91 237.528 598.174 236.448 598.702 235.472C599.246 234.48 600.014 233.688 601.006 233.096C601.998 232.504 603.174 232.208 604.534 232.208C605.894 232.208 607.062 232.504 608.038 233.096C609.014 233.688 609.742 234.464 610.222 235.424L607.078 236.384C606.806 235.92 606.446 235.568 605.998 235.328C605.55 235.072 605.054 234.944 604.51 234.944C603.902 234.944 603.342 235.104 602.83 235.424C602.334 235.728 601.942 236.168 601.654 236.744C601.366 237.304 601.222 237.96 601.222 238.712C601.222 239.448 601.366 240.104 601.654 240.68C601.958 241.24 602.358 241.688 602.854 242.024C603.35 242.344 603.902 242.504 604.51 242.504C604.894 242.504 605.254 242.44 605.59 242.312C605.942 242.184 606.254 242.008 606.526 241.784C606.798 241.56 606.998 241.304 607.126 241.016L610.27 241.976C609.982 242.6 609.558 243.16 608.998 243.656C608.454 244.152 607.806 244.544 607.054 244.832C606.318 245.104 605.486 245.24 604.558 245.24ZM620.124 245.24C619.116 245.24 618.204 245.072 617.388 244.736C616.572 244.384 615.876 243.912 615.3 243.32C614.724 242.712 614.276 242.024 613.956 241.256C613.652 240.472 613.5 239.648 613.5 238.784C613.5 237.584 613.764 236.488 614.292 235.496C614.836 234.504 615.604 233.712 616.596 233.12C617.604 232.512 618.788 232.208 620.148 232.208C621.524 232.208 622.7 232.512 623.676 233.12C624.652 233.712 625.396 234.504 625.908 235.496C626.436 236.472 626.7 237.528 626.7 238.664C626.7 238.856 626.692 239.056 626.676 239.264C626.66 239.456 626.644 239.616 626.628 239.744H616.908C616.972 240.384 617.156 240.944 617.46 241.424C617.78 241.904 618.18 242.272 618.66 242.528C619.156 242.768 619.684 242.888 620.244 242.888C620.884 242.888 621.484 242.736 622.044 242.432C622.62 242.112 623.012 241.696 623.22 241.184L625.98 241.952C625.676 242.592 625.236 243.16 624.66 243.656C624.1 244.152 623.436 244.544 622.668 244.832C621.9 245.104 621.052 245.24 620.124 245.24ZM616.836 237.704H623.412C623.348 237.064 623.164 236.512 622.86 236.048C622.572 235.568 622.188 235.2 621.708 234.944C621.228 234.672 620.692 234.536 620.1 234.536C619.524 234.536 618.996 234.672 618.516 234.944C618.052 235.2 617.668 235.568 617.364 236.048C617.076 236.512 616.9 237.064 616.836 237.704ZM642.507 245H639.291V237.944C639.291 236.936 639.115 236.2 638.763 235.736C638.411 235.272 637.923 235.04 637.299 235.04C636.867 235.04 636.427 235.152 635.979 235.376C635.547 235.6 635.155 235.912 634.803 236.312C634.451 236.696 634.195 237.144 634.035 237.656V245H630.819V232.424H633.723V234.752C634.043 234.208 634.451 233.752 634.947 233.384C635.443 233 636.011 232.712 636.651 232.52C637.307 232.312 637.995 232.208 638.715 232.208C639.499 232.208 640.139 232.352 640.635 232.64C641.147 232.912 641.531 233.288 641.787 233.768C642.059 234.232 642.243 234.76 642.339 235.352C642.451 235.944 642.507 236.544 642.507 237.152V245ZM654.929 244.352C654.657 244.464 654.329 244.592 653.945 244.736C653.561 244.88 653.145 244.992 652.697 245.072C652.265 245.168 651.825 245.216 651.377 245.216C650.785 245.216 650.241 245.112 649.745 244.904C649.249 244.696 648.849 244.368 648.545 243.92C648.257 243.456 648.113 242.856 648.113 242.12V234.896H646.457V232.424H648.113V228.344H651.329V232.424H653.969V234.896H651.329V241.04C651.345 241.472 651.465 241.784 651.689 241.976C651.913 242.168 652.193 242.264 652.529 242.264C652.865 242.264 653.193 242.208 653.513 242.096C653.833 241.984 654.089 241.888 654.281 241.808L654.929 244.352ZM664.455 245.24C663.447 245.24 662.535 245.072 661.719 244.736C660.903 244.384 660.207 243.912 659.631 243.32C659.055 242.712 658.607 242.024 658.287 241.256C657.983 240.472 657.831 239.648 657.831 238.784C657.831 237.584 658.095 236.488 658.623 235.496C659.167 234.504 659.935 233.712 660.927 233.12C661.935 232.512 663.119 232.208 664.479 232.208C665.855 232.208 667.031 232.512 668.007 233.12C668.983 233.712 669.727 234.504 670.239 235.496C670.767 236.472 671.031 237.528 671.031 238.664C671.031 238.856 671.023 239.056 671.007 239.264C670.991 239.456 670.975 239.616 670.959 239.744H661.239C661.303 240.384 661.487 240.944 661.791 241.424C662.111 241.904 662.511 242.272 662.991 242.528C663.487 242.768 664.015 242.888 664.575 242.888C665.215 242.888 665.815 242.736 666.375 242.432C666.951 242.112 667.343 241.696 667.551 241.184L670.311 241.952C670.007 242.592 669.567 243.16 668.991 243.656C668.431 244.152 667.767 244.544 666.999 244.832C666.231 245.104 665.383 245.24 664.455 245.24ZM661.167 237.704H667.743C667.679 237.064 667.495 236.512 667.191 236.048C666.903 235.568 666.519 235.2 666.039 234.944C665.559 234.672 665.023 234.536 664.431 234.536C663.855 234.536 663.327 234.672 662.847 234.944C662.383 235.2 661.999 235.568 661.695 236.048C661.407 236.512 661.231 237.064 661.167 237.704ZM682.639 235.208C681.663 235.208 680.791 235.4 680.023 235.784C679.255 236.152 678.703 236.688 678.367 237.392V245H675.151V232.424H678.103V235.112C678.551 234.248 679.119 233.568 679.807 233.072C680.495 232.576 681.223 232.304 681.991 232.256C682.167 232.256 682.303 232.256 682.399 232.256C682.495 232.256 682.575 232.264 682.639 232.28V235.208Z" fill="#009FB0"/>
<path d="M122.496 158.707C146.401 141.077 156.144 136.71 170.567 137.162C197.049 137.992 214.599 166.678 209.534 200.852C200.886 259.201 161.429 338.146 145.948 328.076C142.895 326.089 142.835 325.696 143.306 310.764C144.463 274.055 132.139 239.442 121.602 249.808C112.383 258.879 105.671 291.249 107.437 318.131C107.836 324.206 106.899 326.789 103.71 328.411C88.8285 335.977 48.6554 254.35 41.0274 201.05C37.71 177.868 44.6003 157.089 57.7862 145.855V154.469C56.0587 156.551 54.4592 158.923 52.9961 161.588C43.825 178.287 44.7329 201.048 55.9639 235.996C61.5053 253.239 65.1665 262.703 72.2588 278.117C81.9638 299.208 97.1009 322.67 101.005 322.672C101.095 322.667 101.094 318.003 101 312.305C100.346 272.391 111.194 241.693 125.942 241.726C140.903 241.761 152.834 279.945 149.784 318.032C149.379 323.096 149.686 323.36 152.576 320.436C177.285 295.439 207.094 214.479 203.365 182.491C200.442 157.411 186.367 142.414 166.799 143.53C156.236 144.132 148.606 147.688 131.421 160.016C111.833 174.068 98.8611 178.987 84.4971 176.132V173.589C96.3654 174.454 107.516 169.755 122.496 158.707ZM161.329 158.966C182.415 154.24 195.825 179.279 190.091 212.667C189.282 217.376 187.775 222.757 188.257 219.215C192.488 188.128 182.914 170.553 167.839 167.178C161.205 165.996 157.903 165.45 142.21 172.603C130.265 179.987 127.388 180.471 122.814 182.656C112.577 187.548 104.324 189.09 95.1035 187.833C92.342 187.456 92.4056 187.445 98.7178 187.186C110.901 186.687 117.47 183.96 136.871 171.354C148.821 163.59 155.269 160.324 161.329 158.966ZM82.9112 137.144C92.9945 137.658 104.497 142.328 118.717 151.58C121.866 153.629 121.851 153.476 119.111 155.596C116.495 157.621 117.097 157.72 111.934 154.419C101.252 147.59 91.5094 143.933 82.9112 143.422V137.144Z" fill="#009FB0"/>
<path d="M89.117 98.1064H80.7528C80.7527 101.914 75.9379 106 69.9989 106C64.06 106 59.246 101.914 59.2459 98.1064H50.8817L44.9989 33H62.8299V94.2764H62.8524C62.8385 94.4027 62.8299 94.5304 62.8299 94.6592C62.8299 97.4088 66.0397 99.6385 69.9989 99.6387C73.9583 99.6387 77.1688 97.4089 77.1688 94.6592C77.1688 94.5304 77.1592 94.4027 77.1454 94.2764H77.1688V33H94.9989L89.117 98.1064Z" fill="#009FB0"/>
<rect x="52.4993" y="109.5" width="35" height="9" fill="#009FB0" stroke="#009FB0"/>
<path d="M67.9993 91.8369C67.9684 92.3673 68.1521 92.8761 68.5277 93.2511C68.9022 93.6262 69.438 93.8369 69.9993 93.8369C70.5606 93.8369 71.0964 93.6262 71.4709 93.2511C71.8465 92.8761 72.0302 92.3673 71.9993 91.8369C71.966 91.2563 71.9326 90.6757 71.8993 90.0951C71.2993 79.644 70.6993 69.193 70.0993 58.7419C70.066 58.1613 70.0326 57.5807 69.9993 57.0001C69.966 57.5807 69.9326 58.1613 69.8993 58.7419C69.2993 69.193 68.6993 79.644 68.0993 90.0951C68.066 90.6757 68.0326 91.2563 67.9993 91.8369Z" fill="#009FB0"/>
<path d="M75.8898 184.997C75.9637 184.982 75.952 185.026 75.9624 185.051C75.8877 185.012 75.9738 185.146 75.9922 185.218C76.0241 185.303 76.0606 185.382 76.0937 185.474C76.1631 185.638 76.2277 185.822 76.2894 185.993C76.8166 187.53 76.9784 189.411 75.8098 191.258C74.6645 193.153 71.9847 194.201 69.9319 194.153C69.8941 194.153 69.8577 194.154 69.8226 194.156C69.4262 194.174 69.2336 194.192 68.9847 194.233C68.7385 194.275 68.3712 194.431 67.9512 194.782C67.1034 195.48 66.1992 196.735 65.2784 198.079C65.0727 198.379 64.8644 198.685 64.652 199.006C64.4815 198.664 64.3271 198.326 64.191 197.979C63.5975 196.414 63.273 194.708 63.8962 192.795C64.3512 190.877 67.125 188.754 69.6012 188.838C69.7103 188.835 69.8186 188.834 69.9262 188.834C70.9645 188.823 71.507 188.862 72.3732 188.521C73.2443 188.167 74.2696 187.148 75.2061 185.857C75.3141 185.716 75.4249 185.555 75.5367 185.409C75.5942 185.325 75.6503 185.254 75.7122 185.174C75.7412 185.145 75.7773 185.089 75.8122 185.06C75.8362 185.032 75.8455 185.022 75.8898 184.997Z" fill="#009FB0"/>
<path d="M75.3479 196.007C75.4196 195.981 75.406 196.033 75.4135 196.056C75.3597 196.014 75.4341 196.148 75.4547 196.217C75.4863 196.295 75.5207 196.372 75.5531 196.458C75.6198 196.614 75.6839 196.785 75.7443 196.95C76.2569 198.4 76.5166 200.081 75.7443 201.907C75.05 203.783 72.5572 205.246 70.5968 205.151C70.5661 205.152 70.5377 205.154 70.5124 205.155C70.296 205.182 70.3113 205.131 70.1207 205.164C69.9384 205.199 69.5992 205.43 69.2474 205.818C68.5298 206.602 67.7667 207.824 66.944 209.113C66.7605 209.402 66.5735 209.693 66.3817 210C66.2223 209.675 66.0759 209.356 65.945 209.027C65.3686 207.546 65.0225 205.972 65.3697 204.166C65.5556 203.274 65.942 202.276 66.8015 201.38C67.6412 200.475 69.0189 199.892 70.1835 199.844C70.3241 199.835 70.461 199.832 70.5968 199.833C71.3341 199.806 71.5479 199.966 72.3257 199.546C73.0693 199.111 73.9229 198.06 74.7481 196.831C74.8442 196.691 74.9418 196.541 75.0414 196.4C75.0923 196.321 75.1427 196.251 75.197 196.177C75.2229 196.148 75.2541 196.095 75.2841 196.067C75.3039 196.04 75.3142 196.031 75.3479 196.007Z" fill="#009FB0"/>
<path d="M75.3077 208.012C75.3851 207.973 75.3692 208.037 75.3741 208.058C75.335 208.011 75.4062 208.15 75.4318 208.216C75.4671 208.292 75.5043 208.37 75.5402 208.452C75.6127 208.608 75.6836 208.768 75.7501 208.933C76.3176 210.338 76.6622 211.901 76.1613 213.698C75.822 215.481 73.3778 217.597 71.1075 217.457C71.1051 217.457 71.1027 217.457 71.1007 217.458C71.1428 217.432 71.1859 217.432 70.9993 217.5C70.811 217.572 70.5348 217.769 70.2023 218.201C69.521 219.084 68.7826 220.311 67.9474 221.592C67.7615 221.882 67.5709 222.166 67.3741 222.469C67.2047 222.15 67.0478 221.841 66.9054 221.518C66.2729 220.073 65.8737 218.556 66.0353 216.831C66.1295 215.973 66.357 215.024 67.0402 214.036C67.6819 213.047 69.1259 212.092 70.5118 211.991C70.7156 211.969 70.9142 211.961 71.1075 211.963C71.3517 211.97 71.4036 212.002 71.5568 212.028C71.7054 212.052 72.0041 211.965 72.3585 211.688C73.0799 211.134 73.8828 210.039 74.7101 208.831C74.8072 208.687 74.9048 208.543 75.006 208.4C75.057 208.325 75.109 208.252 75.1632 208.181C75.1897 208.15 75.2196 208.1 75.2491 208.073C75.2676 208.046 75.2798 208.035 75.3077 208.012Z" fill="#009FB0"/>
<path d="M75.7609 220.018C75.8348 219.967 75.8192 220.039 75.8208 220.056C75.8266 220.066 75.8338 220.079 75.8395 220.097C75.8562 220.125 75.8722 220.168 75.89 220.201C75.9259 220.268 75.9625 220.344 75.9986 220.416C76.0708 220.561 76.1421 220.704 76.2092 220.856C76.7825 222.124 77.1586 223.498 76.9328 225.1C76.8052 225.897 76.5203 226.801 75.7562 227.668C75.056 228.5 73.776 229.097 72.6523 229.145C72.4821 229.342 72.2792 229.625 72.0785 229.934C71.4873 230.852 70.8259 231.994 70.0445 233.188C69.8709 233.459 69.6921 233.72 69.5063 234C69.3411 233.707 69.1864 233.426 69.0449 233.13C68.4128 231.809 67.9961 230.449 67.9993 228.91C68.0114 228.141 68.1092 227.323 68.5366 226.389C68.9213 225.504 69.8544 224.286 71.4993 224C71.9993 224 71.4993 224 71.9993 224C72.0326 223.994 72.4993 224 72.4993 224C72.6037 223.968 72.8056 223.899 73.1147 223.581C73.7509 222.938 74.4464 221.89 75.2105 220.776C75.3007 220.64 75.3922 220.51 75.4866 220.374C75.5337 220.308 75.5819 220.236 75.6317 220.173C75.6565 220.142 75.6835 220.099 75.7103 220.073C75.7262 220.049 75.7403 220.036 75.7609 220.018ZM72.4529 229.149C72.4715 229.151 72.4951 229.149 72.5222 229.147C72.4991 229.147 72.4759 229.149 72.4529 229.149Z" fill="#009FB0"/>
<path d="M76.5554 233.018C76.5575 232.989 76.6303 233 76.6147 233.013C76.6152 233.022 76.6132 233.031 76.612 233.042H76.6166C76.6246 233.051 76.6321 233.067 76.6398 233.088C76.6576 233.115 76.6751 233.154 76.6936 233.188C76.7309 233.25 76.7684 233.325 76.8058 233.391C76.8799 233.53 76.953 233.664 77.0228 233.805C77.6145 234.994 78.0219 236.245 77.9983 237.691C77.9725 238.416 77.8663 239.205 77.3585 240.122C76.9916 240.878 75.8968 241.842 74.6525 242.085C74.4913 242.339 74.311 242.663 74.1221 243.006C73.5967 243.958 72.9762 245.076 72.2201 246.222C72.052 246.483 71.8777 246.732 71.6961 247C71.5299 246.722 71.3733 246.459 71.2288 246.178C70.5798 244.936 70.1383 243.65 70.0223 242.253C69.9723 241.543 69.9895 240.816 70.2198 239.965C70.4894 239.187 70.7961 237.864 72.7552 237.038C73.1245 236.905 73.521 236.842 73.8865 236.835C73.9568 236.755 74.0302 236.668 74.1017 236.575C74.6717 235.832 75.3017 234.814 76.0324 233.742C76.1187 233.614 76.2066 233.489 76.2976 233.357C76.3428 233.296 76.3892 233.224 76.4367 233.166C76.4607 233.133 76.4864 233.095 76.5118 233.069C76.5259 233.047 76.5399 233.03 76.5554 233.018Z" fill="#009FB0"/>
<path d="M77.6079 245C77.6388 245.012 77.6236 245.017 77.6266 245.022C77.6255 245.032 77.6224 245.042 77.6204 245.056C77.7132 245.183 77.8712 245.527 77.9872 245.77C78.5012 246.883 78.8682 248.029 78.9746 249.316C79.0206 249.966 79.0204 250.639 78.8138 251.476C78.7027 251.892 78.55 252.371 78.1558 252.935C77.9369 253.269 77.525 253.652 77.0326 253.896C76.8938 254.238 76.7357 254.652 76.562 255.079C76.1645 256.067 75.6685 257.148 75.0454 258.253C74.9069 258.506 74.7624 258.742 74.6115 259C74.4695 258.735 74.3352 258.488 74.2103 258.22C73.6486 257.049 73.2534 255.85 73.0816 254.565C72.9981 253.923 72.9663 253.264 73.0426 252.52C73.0832 252.146 73.1474 251.751 73.2916 251.285C73.4591 250.819 73.61 250.232 74.3757 249.492C74.6385 249.243 75.0373 249.018 75.4544 248.909C75.5151 248.8 75.579 248.684 75.6417 248.564C76.0681 247.744 76.5592 246.757 77.1528 245.725C77.2233 245.604 77.2953 245.483 77.3698 245.354C77.4068 245.297 77.4451 245.224 77.4838 245.17C77.5033 245.136 77.5235 245.103 77.5439 245.077C77.5549 245.056 77.5666 245.04 77.5782 245.029C77.5834 245.024 77.58 245.008 77.6079 245Z" fill="#009FB0"/>
<path d="M79.474 258C79.5806 258.121 79.7234 258.449 79.8386 258.68C80.3349 259.726 80.7001 260.795 80.8853 261.944C80.9752 262.525 81.0278 263.108 80.9831 263.806C80.9566 264.157 80.9187 264.524 80.7677 265.039C80.6867 265.298 80.5813 265.613 80.3237 266.018C80.24 266.153 80.1117 266.318 79.9466 266.481C79.9288 266.548 79.9104 266.616 79.8915 266.686C79.7726 267.132 79.632 267.619 79.4637 268.126C79.1283 269.132 78.5294 270 78.37 271.255C78.2421 271.503 78.2457 272.25 78.1053 272.5C77.9699 272.245 77.4398 271.512 77.3195 271.255C76.7778 270.144 76.3864 268.999 76.1706 267.823C76.0641 267.226 75.9994 266.632 75.9993 265.98C75.9998 265.654 76.0153 265.319 76.0632 264.941C76.1231 264.549 76.1545 264.181 76.4484 263.451C76.546 263.233 76.6589 262.974 76.9453 262.617C77.0603 262.469 77.245 262.293 77.4746 262.14C77.5538 261.941 77.6373 261.725 77.726 261.505C78.0787 260.622 78.5119 259.65 79.052 258.652C79.185 258.433 79.305 258.102 79.474 258ZM78.8102 267.097C78.7199 267.112 78.6262 267.122 78.5294 267.123C78.6257 267.125 78.7197 267.115 78.8102 267.097Z" fill="#009FB0"/>
<path d="M81.7697 270.09C81.8632 270.195 81.9786 270.506 82.0768 270.72C82.4942 271.683 82.8288 272.663 83.0718 273.678C83.1931 274.186 83.2921 274.704 83.3628 275.257C83.3979 275.54 83.4266 275.815 83.4425 276.158C83.4499 276.334 83.4552 276.519 83.4477 276.771C83.4405 276.927 83.4403 277.03 83.4023 277.332C83.388 277.426 83.3787 277.504 83.3522 277.632C83.341 279.166 83.1205 281.39 82.5383 283.362C82.4709 283.61 82.3973 283.838 82.3209 284.088C82.2098 283.85 82.1049 283.632 82.0035 283.394C80.7476 280.439 80.4674 279.5 80.5132 276.678C80.5155 276.537 80.5175 276.406 80.5336 276.173C80.5428 276.055 80.5518 275.92 80.5906 275.668C80.5991 275.615 80.6158 275.518 80.6351 275.428C80.6549 275.337 80.6796 275.229 80.7309 275.066C80.7359 275.054 80.7415 275.038 80.7476 275.021C80.7893 274.601 80.8418 274.136 80.9114 273.671C81.0513 272.727 81.2579 271.745 81.5417 270.748C81.6125 270.526 81.6752 270.201 81.7697 270.09ZM80.7251 275.24C80.6918 275.383 80.689 275.438 80.6782 275.508C80.6582 275.677 80.6646 275.686 80.6654 275.708C80.6706 275.73 80.68 275.667 80.6887 275.595C80.7005 275.495 80.7121 275.373 80.7251 275.24ZM81.7935 273.902C81.6706 273.909 81.5552 273.953 81.4501 274.018C81.5501 273.964 81.6637 273.922 81.7935 273.902Z" fill="#009FB0"/>
<path d="M77.9993 153.033H75.1243C75.9076 152.582 76.6621 152.028 77.3636 151.348C77.589 151.142 77.8007 150.916 77.9993 150.676V153.033ZM77.9993 144.284C75.6839 147.456 72.9759 146.855 69.6731 147.682C69.5858 147.698 69.498 147.717 69.4104 147.735C66.9929 148.266 64.7646 149.401 62.9759 151.387C62.6083 151.751 62.2787 152.197 61.9993 152.693V124.052H77.9993V144.284Z" fill="#009FB0"/>
<path d="M77.3542 150C77.4196 150.002 77.4148 150.039 77.4283 150.069C77.3455 150.044 77.4008 150.088 77.4011 150.128C77.4147 150.165 77.4277 150.223 77.4462 150.265C77.4789 150.368 77.5176 150.465 77.5541 150.565C77.6258 150.773 77.6967 150.972 77.7549 151.195C78.3452 153.067 77.903 155.742 76.0235 157.509C74.1725 159.289 71.7654 159.878 69.7106 159.882C69.6991 159.882 69.6873 159.882 69.6759 159.882C68.4794 159.914 67.8841 159.854 66.9826 160.109C66.06 160.375 64.8408 161.485 63.7187 162.967C63.4659 163.294 63.2124 163.636 62.9576 164C62.7657 163.599 62.5962 163.195 62.4546 162.777C61.8373 160.919 61.6707 158.607 63.1021 156.383C64.5375 154.107 67.4857 153.067 69.644 153.116C69.6661 153.116 69.6886 153.115 69.7106 153.115C72.3413 152.923 73.856 153.902 76.5021 150.941C76.6376 150.779 76.7697 150.625 76.9084 150.449C76.9771 150.366 77.0452 150.284 77.1224 150.19C77.1587 150.154 77.2019 150.097 77.2481 150.06C77.2798 150.031 77.2921 150.017 77.3542 150Z" fill="#009FB0"/>
<path d="M76.7885 162C76.8588 161.997 76.8517 162.036 76.8647 162.064C76.7614 162.039 76.8707 162.166 76.8865 162.25C76.92 162.347 76.959 162.438 76.9954 162.535C77.0683 162.731 77.1402 162.922 77.2022 163.126C77.7842 164.877 77.5986 167.29 75.8552 169.127C74.1388 170.965 71.5729 171.644 69.4869 171.639C69.4643 171.639 69.4419 171.64 69.4196 171.64C68.2952 171.694 67.8752 171.593 66.9363 171.97C66.0004 172.373 64.8526 173.564 63.769 175.003C63.5256 175.319 63.2801 175.651 63.0326 176C62.8423 175.619 62.6727 175.236 62.5278 174.845C61.9037 173.081 61.6421 171.011 62.8297 168.844C63.9816 166.604 67.0863 165.28 69.3424 165.354C69.3905 165.354 69.439 165.354 69.4869 165.354C71.9517 165.222 73.4341 165.9 75.97 162.915C76.0996 162.76 76.2272 162.606 76.3609 162.437C76.4279 162.354 76.4946 162.276 76.5688 162.186C76.6036 162.152 76.6452 162.095 76.6885 162.062C76.7185 162.032 76.7293 162.021 76.7885 162Z" fill="#009FB0"/>
<path d="M76.1931 173.001C76.2637 172.993 76.2542 173.034 76.2657 173.061C76.1783 173.029 76.2747 173.159 76.2912 173.237C76.3232 173.328 76.3594 173.412 76.3933 173.507C76.4632 173.685 76.5294 173.877 76.5906 174.061C77.1291 175.703 77.1527 177.839 75.7122 179.709C74.2803 181.599 71.7114 182.418 69.7076 182.396C69.6764 182.396 69.6453 182.396 69.6153 182.397C68.671 182.473 68.4216 182.319 67.4944 182.857C66.6132 183.411 65.6137 184.646 64.6344 186.038C64.4152 186.346 64.1936 186.665 63.969 187C63.7927 186.639 63.6345 186.277 63.4969 185.91C62.9033 184.243 62.6019 182.378 63.4753 180.316C64.2452 178.195 67.2163 176.5 69.4838 176.595C69.5585 176.594 69.6335 176.593 69.7076 176.593C70.8399 176.591 71.5683 176.607 72.441 176.37C73.3292 176.136 74.4497 175.234 75.459 173.889C75.5745 173.743 75.6916 173.583 75.8113 173.426C75.8722 173.342 75.9323 173.268 75.9988 173.183C76.0299 173.152 76.0676 173.095 76.1057 173.063C76.1322 173.035 76.1418 173.024 76.1931 173.001Z" fill="#009FB0"/>
<path d="M84.7913 282C86.7396 288.994 89.1578 295.895 92.1429 302.679C93.2883 305.02 94.5519 307.332 95.9153 309.545C94.3192 307.494 92.8065 305.318 91.4016 303.094C88.6474 298.328 86.1935 293.448 83.9993 288.476C84.4916 286.617 84.6833 284.6 84.6936 283.177C84.7201 283.049 84.7301 282.971 84.7444 282.878C84.7824 282.575 84.7822 282.472 84.7893 282.315C84.7929 282.198 84.7923 282.095 84.7913 282Z" fill="#009FB0"/>
</g>
<defs>
<clipPath id="clip0_5_1406">
<rect width="800" height="360" fill="white"/>
</clipPath>
</defs>
</svg>
