<svg width="43" height="33" viewBox="0 0 43 33" fill="none" xmlns="http://www.w3.org/2000/svg">
<path d="M0.5 27.75C0.5 29.1424 1.05312 30.4777 2.03769 31.4623C3.02226 32.4469 4.35761 33 5.75 33H37.25C38.6424 33 39.9777 32.4469 40.9623 31.4623C41.9469 30.4777 42.5 29.1424 42.5 27.75V13.3125H0.5V27.75ZM6.6875 20.625C6.6875 19.8791 6.98382 19.1637 7.51126 18.6363C8.03871 18.1088 8.75408 17.8125 9.5 17.8125H14C14.7459 17.8125 15.4613 18.1088 15.9887 18.6363C16.5162 19.1637 16.8125 19.8791 16.8125 20.625V22.5C16.8125 23.2459 16.5162 23.9613 15.9887 24.4887C15.4613 25.0162 14.7459 25.3125 14 25.3125H9.5C8.75408 25.3125 8.03871 25.0162 7.51126 24.4887C6.98382 23.9613 6.6875 23.2459 6.6875 22.5V20.625ZM37.25 0H5.75C4.35761 0 3.02226 0.553124 2.03769 1.53769C1.05312 2.52226 0.5 3.85761 0.5 5.25V7.6875H42.5V5.25C42.5 3.85761 41.9469 2.52226 40.9623 1.53769C39.9777 0.553124 38.6424 0 37.25 0Z" fill="#00A6A6"/>
</svg>
