<svg width="49" height="48" viewBox="0 0 49 48" fill="none" xmlns="http://www.w3.org/2000/svg">
<path fill-rule="evenodd" clip-rule="evenodd" d="M20.0304 2.14199L17.9994 3.63299C17.6415 3.91846 17.2624 4.17621 16.8654 4.40399C16.598 4.54614 16.3177 4.66265 16.0284 4.75199C15.7014 4.85099 15.3624 4.90199 14.6814 5.00699L12.1914 5.38799C10.2264 5.68799 9.24236 5.84099 8.47136 6.29999C7.78136 6.70499 7.20836 7.28099 6.80036 7.97099C6.34136 8.75099 6.19136 9.73499 5.88836 11.691L5.50736 14.181C5.40236 14.862 5.35136 15.204 5.25236 15.531C5.16236 15.821 5.04636 16.099 4.90436 16.365C4.74236 16.665 4.54136 16.944 4.13336 17.499L2.64236 19.53C1.46636 21.132 0.878358 21.933 0.650358 22.8C0.453787 23.5747 0.453787 24.3863 0.650358 25.161C0.875358 26.037 1.46636 26.841 2.64236 28.431L4.13336 30.462C4.54136 31.017 4.74536 31.296 4.90436 31.596C5.04436 31.864 5.16036 32.144 5.25236 32.436C5.35136 32.76 5.40236 33.099 5.50736 33.78L5.88836 36.27C6.18836 38.235 6.34136 39.216 6.80036 39.99C7.20536 40.68 7.78136 41.256 8.47136 41.661C9.25136 42.12 10.2354 42.27 12.1914 42.573L14.6814 42.954C15.3624 43.059 15.7044 43.113 16.0284 43.212C16.3184 43.3 16.5974 43.416 16.8654 43.56C17.1654 43.719 17.4444 43.92 17.9994 44.331L20.0304 45.822C21.6324 46.998 22.4334 47.586 23.3004 47.814C24.0744 48.015 24.8874 48.015 25.6614 47.814C26.5374 47.586 27.3414 46.998 28.9314 45.822L30.9624 44.331C31.5174 43.923 31.7964 43.719 32.0964 43.56C32.3644 43.416 32.6434 43.3 32.9334 43.212C33.2604 43.113 33.5994 43.062 34.2804 42.954L36.7704 42.573C38.7354 42.273 39.7164 42.123 40.4904 41.661C41.1804 41.256 41.7564 40.68 42.1614 39.99C42.6204 39.21 42.7704 38.226 43.0734 36.27L43.4544 33.78C43.5594 33.099 43.6104 32.76 43.7094 32.433C43.7994 32.143 43.9154 31.864 44.0574 31.596C44.2194 31.296 44.4204 31.017 44.8284 30.462L46.3194 28.431C47.4954 26.829 48.0834 26.031 48.3114 25.161C48.5079 24.3863 48.5079 23.5747 48.3114 22.8C48.0864 21.924 47.4954 21.12 46.3194 19.53L44.8284 17.499C44.5429 17.1412 44.2851 16.7621 44.0574 16.365C43.9152 16.0976 43.7987 15.8173 43.7094 15.528C43.5902 15.0861 43.505 14.6358 43.4544 14.181L43.0734 11.691C42.7734 9.72599 42.6204 8.74199 42.1614 7.97099C41.7523 7.28344 41.1779 6.70903 40.4904 6.29999C39.7104 5.84099 38.7264 5.69099 36.7704 5.38799L34.2804 5.00699C33.8255 4.95636 33.3752 4.87112 32.9334 4.75199C32.6434 4.66446 32.3629 4.54787 32.0964 4.40399C31.6993 4.17621 31.3202 3.91846 30.9624 3.63299L28.9314 2.14199C27.3294 0.965992 26.5284 0.377992 25.6614 0.149992C24.8866 -0.0465794 24.0751 -0.0465794 23.3004 0.149992C22.4244 0.377992 21.6204 0.965992 20.0304 2.14199ZM36.0204 18.372C36.194 18.1602 36.3234 17.9158 36.4009 17.6531C36.4784 17.3905 36.5025 17.1149 36.4718 16.8428C36.441 16.5707 36.356 16.3075 36.2218 16.0688C36.0876 15.8301 35.9069 15.6207 35.6904 15.453C35.2499 15.1084 34.6924 14.9495 34.1365 15.01C33.5806 15.0705 33.0703 15.3457 32.7144 15.777L22.7844 27.957L17.4744 23.877C17.0406 23.524 16.4861 23.3543 15.9291 23.4042C15.372 23.4541 14.8565 23.7195 14.4924 24.144C14.3145 24.3522 14.1801 24.5939 14.0972 24.8549C14.0143 25.1159 13.9845 25.3908 14.0097 25.6635C14.0349 25.9362 14.1145 26.201 14.2437 26.4425C14.373 26.6839 14.5494 26.8969 14.7624 27.069L21.7224 32.499C22.1619 32.8565 22.725 33.0256 23.2887 32.9694C23.8525 32.9132 24.3711 32.6362 24.7314 32.199L36.0114 18.339L36.0204 18.372Z" fill="#00A6A6"/>
</svg>
