<svg width="23" height="23" viewBox="0 0 23 23" fill="none" xmlns="http://www.w3.org/2000/svg">
<path d="M19.1093 8.98596C18.5784 7.7391 17.7495 6.64163 16.6955 5.78989C15.6414 4.93815 14.3944 4.35818 13.0638 4.10089L14.2658 2.17783L13.0468 1.41595L11.4608 3.9535C9.8453 3.96102 8.26741 4.44165 6.92206 5.33601C5.57671 6.23038 4.52285 7.49929 3.89069 8.98596C3.04393 9.00206 2.2373 9.34973 1.64416 9.95425C1.05103 10.5588 0.71875 11.3719 0.71875 12.2188C0.71875 13.0657 1.05103 13.8788 1.64416 14.4833C2.2373 15.0878 3.04393 15.4355 3.89069 15.4516C4.52552 16.9444 5.58543 18.2175 6.93845 19.1124C8.29147 20.0073 9.87782 20.4844 11.5 20.4844C13.1222 20.4844 14.7085 20.0073 16.0616 19.1124C17.4146 18.2175 18.4745 16.9444 19.1093 15.4516C19.9561 15.4355 20.7627 15.0878 21.3558 14.4833C21.949 13.8788 22.2813 13.0657 22.2813 12.2188C22.2813 11.3719 21.949 10.5588 21.3558 9.95425C20.7627 9.34973 19.9561 9.00206 19.1093 8.98596ZM20.329 13.477C20.0003 13.8133 19.5522 14.0063 19.082 14.0143L18.151 14.032L17.7866 14.8889C17.2622 16.1223 16.3866 17.1742 15.2687 17.9136C14.1509 18.653 12.8403 19.0473 11.5 19.0473C10.1598 19.0473 8.84914 18.653 7.73132 17.9136C6.6135 17.1742 5.73788 16.1223 5.2135 14.8889L4.849 14.032L3.918 14.0143C3.4476 14.0055 2.99945 13.8125 2.66989 13.4767C2.34034 13.1409 2.15572 12.6892 2.15572 12.2188C2.15572 11.7483 2.34034 11.2966 2.66989 10.9608C2.99945 10.625 3.4476 10.432 3.918 10.4232L4.849 10.4055L5.2135 9.54866C5.7379 8.31527 6.61352 7.26339 7.73134 6.52399C8.84916 5.78459 10.1598 5.39035 11.5 5.39035C12.8403 5.39035 14.1509 5.78459 15.2687 6.52399C16.3865 7.26339 17.2622 8.31527 17.7866 9.54866L18.151 10.4055L19.082 10.4232C19.4329 10.4298 19.7741 10.5391 20.0635 10.7375C20.3529 10.936 20.5779 11.2149 20.7105 11.5397C20.8432 11.8646 20.8777 12.2212 20.8099 12.5655C20.7421 12.9098 20.575 13.2267 20.329 13.477Z" fill="#00A6A6"/>
<path d="M7.54688 10.4219H9.34375V12.2188H7.54688V10.4219ZM13.6562 10.4219H15.4531V12.2188H13.6562V10.4219ZM11.5 17.25C11.9719 17.25 12.4393 17.157 12.8753 16.9764C13.3113 16.7958 13.7075 16.5311 14.0412 16.1974C14.3749 15.8637 14.6396 15.4675 14.8202 15.0315C15.0008 14.5955 15.0938 14.1282 15.0938 13.6562H7.90625C7.90625 14.1282 7.9992 14.5955 8.17981 15.0315C8.36041 15.4675 8.62512 15.8637 8.95884 16.1974C9.63279 16.8714 10.5469 17.25 11.5 17.25Z" fill="#00A6A6"/>
</svg>
