<svg width="24" height="24" viewBox="0 0 24 24" fill="none" xmlns="http://www.w3.org/2000/svg">
<path d="M12.707 2.29303C12.5195 2.10556 12.2652 2.00024 12 2.00024C11.7348 2.00024 11.4805 2.10556 11.293 2.29303L2.293 11.293C2.15319 11.4329 2.05798 11.611 2.01942 11.805C1.98085 11.999 2.00065 12.2 2.07632 12.3827C2.15199 12.5654 2.28013 12.7215 2.44454 12.8314C2.60895 12.9413 2.80225 13 3 13H4V20C4 21.103 4.897 22 6 22H18C19.103 22 20 21.103 20 20V13H21C21.198 13.0005 21.3916 12.9421 21.5563 12.8323C21.721 12.7225 21.8494 12.5662 21.9252 12.3833C22.0009 12.2004 22.0206 11.9991 21.9818 11.805C21.9429 11.6109 21.8473 11.4327 21.707 11.293L12.707 2.29303ZM18.001 20H6V10.414L12 4.41403L18 10.414V15L18.001 20Z" fill="#00A6A6"/>
<path d="M13 10H11V13H8V15H11V18H13V15H16V13H13V10Z" fill="#00A6A6"/>
</svg>
