<svg width="43" height="48" viewBox="0 0 43 48" fill="none" xmlns="http://www.w3.org/2000/svg">
<path d="M12.667 22.875V19.125C12.667 18.5037 13.1707 18 13.792 18H17.542C18.1633 18 18.667 18.5037 18.667 19.125V22.875C18.667 23.4963 18.1633 24 17.542 24H13.792C13.1707 24 12.667 23.4963 12.667 22.875ZM25.792 24H29.542C30.1633 24 30.667 23.4963 30.667 22.875V19.125C30.667 18.5037 30.1633 18 29.542 18H25.792C25.1707 18 24.667 18.5037 24.667 19.125V22.875C24.667 23.4963 25.1707 24 25.792 24ZM18.667 31.875V28.125C18.667 27.5037 18.1633 27 17.542 27H13.792C13.1707 27 12.667 27.5037 12.667 28.125V31.875C12.667 32.4963 13.1707 33 13.792 33H17.542C18.1633 33 18.667 32.4963 18.667 31.875ZM25.792 33H29.542C30.1633 33 30.667 32.4963 30.667 31.875V28.125C30.667 27.5037 30.1633 27 29.542 27H25.792C25.1707 27 24.667 27.5037 24.667 28.125V31.875C24.667 32.4963 25.1707 33 25.792 33ZM42.667 44.625V48H0.666992V44.625C0.666992 44.0037 1.17071 43.5 1.79199 43.5H3.62012V7.97203C3.62012 6.88294 4.62746 6 5.87012 6H14.167V2.25C14.167 1.00734 15.1743 0 16.417 0H26.917C28.1596 0 29.167 1.00734 29.167 2.25V6H37.4639C38.7065 6 39.7139 6.88294 39.7139 7.97203V43.5H41.542C42.1633 43.5 42.667 44.0037 42.667 44.625ZM8.12012 43.4062H18.667V37.125C18.667 36.5037 19.1707 36 19.792 36H23.542C24.1633 36 24.667 36.5037 24.667 37.125V43.4062H35.2139V10.5H29.167V12.75C29.167 13.9927 28.1596 15 26.917 15H16.417C15.1743 15 14.167 13.9927 14.167 12.75V10.5H8.12012V43.4062ZM25.6045 6H23.167V3.5625C23.167 3.41332 23.1077 3.27024 23.0022 3.16475C22.8968 3.05926 22.7537 3 22.6045 3H20.7295C20.5803 3 20.4372 3.05926 20.3317 3.16475C20.2263 3.27024 20.167 3.41332 20.167 3.5625V6H17.7295C17.5803 6 17.4372 6.05926 17.3317 6.16475C17.2263 6.27024 17.167 6.41332 17.167 6.5625V8.4375C17.167 8.58668 17.2263 8.72976 17.3317 8.83525C17.4372 8.94074 17.5803 9 17.7295 9H20.167V11.4375C20.167 11.5867 20.2263 11.7298 20.3317 11.8352C20.4372 11.9407 20.5803 12 20.7295 12H22.6045C22.7537 12 22.8968 11.9407 23.0022 11.8352C23.1077 11.7298 23.167 11.5867 23.167 11.4375V9H25.6045C25.7537 9 25.8968 8.94074 26.0022 8.83525C26.1077 8.72976 26.167 8.58668 26.167 8.4375V6.5625C26.167 6.41332 26.1077 6.27024 26.0022 6.16475C25.8968 6.05926 25.7537 6 25.6045 6Z" fill="white"/>
</svg>
