<svg width="24" height="24" viewBox="0 0 24 24" fill="none" xmlns="http://www.w3.org/2000/svg">
<path d="M8.54601 7.15601C8.67861 7.15601 8.80579 7.20868 8.89956 7.30245C8.99333 7.39622 9.04601 7.5234 9.04601 7.65601V9.42251H10.8535C10.9861 9.42251 11.1133 9.47518 11.2071 9.56895C11.3008 9.66272 11.3535 9.7899 11.3535 9.92251C11.3535 10.0551 11.3008 10.1823 11.2071 10.2761C11.1133 10.3698 10.9861 10.4225 10.8535 10.4225H9.04601V12.189C9.04601 12.3216 8.99333 12.4488 8.89956 12.5426C8.80579 12.6363 8.67861 12.689 8.54601 12.689C8.4134 12.689 8.28622 12.6363 8.19245 12.5426C8.09869 12.4488 8.04601 12.3216 8.04601 12.189V10.4225H6.23801C6.1054 10.4225 5.97822 10.3698 5.88445 10.2761C5.79069 10.1823 5.73801 10.0551 5.73801 9.92251C5.73801 9.7899 5.79069 9.66272 5.88445 9.56895C5.97822 9.47518 6.1054 9.42251 6.23801 9.42251H8.04601V7.65601C8.04601 7.5234 8.09869 7.39622 8.19245 7.30245C8.28622 7.20868 8.4134 7.15601 8.54601 7.15601Z" fill="#007286"/>
<path fill-rule="evenodd" clip-rule="evenodd" d="M4.99999 18.27L3.01899 4.88051C2.98266 4.64684 2.99809 4.40804 3.06418 4.18099C3.13027 3.95394 3.24542 3.74417 3.40149 3.56651C3.55752 3.38786 3.75023 3.24494 3.96649 3.14751C4.1824 3.04952 4.41689 2.99921 4.65399 3.00001H12.347C12.5839 3.00022 12.8181 3.05084 13.034 3.14851C13.2498 3.24619 13.4424 3.38867 13.599 3.56651C13.7551 3.74417 13.8702 3.95394 13.9363 4.18099C14.0024 4.40804 14.0178 4.64684 13.9815 4.88051L12 18.2705V19.25C12 19.7075 11.8255 20.1505 11.509 20.48C11.353 20.6438 11.1655 20.7744 10.9577 20.8637C10.7499 20.9531 10.5262 20.9995 10.3 21H6.69999C6.24249 21 5.80799 20.81 5.49099 20.48C5.17477 20.1487 4.99885 19.708 4.99999 19.25V18.27ZM4.37799 4.05901C4.46399 4.02051 4.55799 4.00001 4.65399 4.00001H12.3465C12.4409 3.99957 12.5343 4.01938 12.6204 4.05811C12.7064 4.09684 12.7832 4.15358 12.8455 4.22451C12.9057 4.29246 12.9501 4.3729 12.9755 4.46004C13.0009 4.54717 13.0067 4.63886 12.9925 4.72851L11.103 17.5H5.89699L4.00799 4.73251L4.00749 4.72851C3.99327 4.63874 3.99913 4.54694 4.02463 4.45971C4.05014 4.37247 4.09466 4.29198 4.15499 4.22401C4.21549 4.15451 4.29149 4.09801 4.37799 4.05901ZM10.788 19.7875C10.9215 19.6485 11 19.4555 11 19.25V18.7335H5.99999V19.25C5.99999 19.455 6.07849 19.6485 6.21199 19.7875C6.34499 19.926 6.52099 20 6.69999 20H10.3C10.479 20 10.655 19.926 10.788 19.7875Z" fill="#007286"/>
<path d="M21 3.5C21 3.36739 20.9473 3.24021 20.8536 3.14645C20.7598 3.05268 20.6326 3 20.5 3C20.3674 3 20.2402 3.05268 20.1464 3.14645C20.0527 3.24021 20 3.36739 20 3.5H17V4.5H20V5.5H17V6.5H20V7.5H17V8.5H20V9.496L18.1215 11.6735C18.0432 11.7642 18 11.8801 18 12V20.5C18 20.6326 18.0527 20.7598 18.1464 20.8536C18.2402 20.9473 18.3674 21 18.5 21C18.6326 21 18.7598 20.9473 18.8536 20.8536C18.9473 20.7598 19 20.6326 19 20.5V12.186L20.8785 10.0085C20.9568 9.91775 21 9.80188 21 9.682V3.5Z" fill="#007286"/>
</svg>
