<svg width="24" height="24" viewBox="0 0 24 24" fill="none" xmlns="http://www.w3.org/2000/svg">
<path d="M11.977 5.176C12.197 4.99467 12.426 4.786 12.664 4.55C14.964 2.266 18.096 2.713 19.563 4.55C23.168 9.064 19.131 16.144 16.822 20.24C16.559 20.706 16.035 21 15.472 21C14.572 21 13.869 20.28 13.839 19.44C13.779 17.7 13.375 15.595 12 15.5C10.625 15.595 10.174 17.7 10.114 19.44C10.084 20.28 9.381 21 8.482 21C7.918 21 7.394 20.706 7.132 20.24C3.844 14.408 2.954 10.749 3.002 8.4C5 8.5 5.992 7.5 5.992 5.7C8 6 9 4.829 9 3C10 3 10.575 3.84 11.29 4.55C11.5267 4.78533 11.7557 4.994 11.977 5.176ZM11.977 5.176C13.469 6.412 14.5 6.5 15 6" stroke="#007286" stroke-width="1.5" stroke-linecap="round" stroke-linejoin="round"/>
</svg>
