<svg width="24" height="24" viewBox="0 0 24 24" fill="none" xmlns="http://www.w3.org/2000/svg">
<path d="M8.99999 6.00002C9.49999 6.50002 10.503 6.41202 12 5.17602M12 5.17602C11.7787 4.99468 11.549 4.78602 11.311 4.55002C9.00499 2.26602 5.86499 2.71302 4.39399 4.55002C3.37799 5.82002 0.777993 8.98001 7.14199 20.24C7.40599 20.706 7.93099 21 8.49599 21C9.39799 21 10.103 20.28 10.132 19.44C10.195 17.658 10.54 15.603 12 15.603C13.46 15.603 13.806 17.658 13.868 19.44C13.897 20.28 14.602 21 15.504 21C16.069 21 16.594 20.706 16.858 20.24C23.223 8.97902 20.622 5.82002 19.606 4.55002C18.135 2.71302 14.995 2.26602 12.689 4.55002C12.451 4.78535 12.2213 4.99402 12 5.17602Z" stroke="#007286" stroke-width="1.5" stroke-linecap="round" stroke-linejoin="round"/>
<path d="M10.387 9.387C9.871 9.903 9.871 12.097 10.387 12.613C10.903 13.129 13.097 13.129 13.613 12.613C14.129 12.097 14.129 9.903 13.613 9.387C13.097 8.871 10.903 8.871 10.387 9.387Z" stroke="#007286" stroke-width="1.5"/>
<path d="M10 11H4M20 11H14" stroke="#007286" stroke-width="1.5" stroke-linecap="round"/>
</svg>
