<svg width="24" height="24" viewBox="0 0 24 24" fill="none" xmlns="http://www.w3.org/2000/svg">
<path d="M14 5.00002C13.5 5.50002 12.497 5.41202 11 4.17602M11 4.17602C11.2213 3.99468 11.451 3.78602 11.689 3.55002C13.995 1.26602 17.135 1.71302 18.606 3.55002C19.232 4.33202 20.459 5.83102 19.821 9.50002M11 4.17602C10.7787 3.99468 10.549 3.78602 10.311 3.55002C8.00499 1.26602 4.86499 1.71302 3.39399 3.55002C2.37799 4.82002 -0.222007 7.98002 6.14199 19.24C6.40599 19.706 6.93099 20 7.49599 20C8.39799 20 9.10299 19.28 9.13199 18.44C9.17799 17.137 9.42999 15.685 10.133 15M16 17L16.684 17.684C16.831 17.831 16.905 17.905 16.994 17.9C17.084 17.895 17.149 17.814 17.279 17.651L19 15.5M13 15.454V15.84C13 17.042 13 17.643 13.148 18.193C13.3329 18.8752 13.6809 19.5022 14.162 20.02C14.552 20.442 15.068 20.77 16.099 21.427C16.56 21.721 16.791 21.868 17.037 21.937C17.34 22.021 17.661 22.021 17.964 21.937C18.209 21.868 18.44 21.721 18.901 21.427C19.932 20.77 20.448 20.442 20.838 20.02C21.3191 19.5022 21.6671 18.8752 21.852 18.193C22 17.643 22 17.043 22 15.84V15.454C22 14.706 22 14.332 21.858 14.016C21.7689 13.821 21.6437 13.6445 21.489 13.496C21.236 13.256 20.877 13.124 20.159 12.861L18.685 12.321C18.099 12.107 17.806 12 17.5 12C17.194 12 16.901 12.107 16.315 12.322L14.841 12.862C14.123 13.124 13.764 13.255 13.511 13.496C13.3559 13.6444 13.2304 13.8209 13.141 14.016C13 14.332 13 14.706 13 15.454Z" stroke="#007286" stroke-width="1.5" stroke-linecap="round" stroke-linejoin="round"/>
</svg>
