<svg width="46" height="45" viewBox="0 0 46 45" fill="none" xmlns="http://www.w3.org/2000/svg">
<path d="M15.5 20.625C17.9864 20.625 20.371 19.6373 22.1291 17.8791C23.8873 16.121 24.875 13.7364 24.875 11.25C24.875 8.7636 23.8873 6.37903 22.1291 4.62087C20.371 2.86272 17.9864 1.875 15.5 1.875C13.0136 1.875 10.629 2.86272 8.87087 4.62087C7.11272 6.37903 6.125 8.7636 6.125 11.25C6.125 13.7364 7.11272 16.121 8.87087 17.8791C10.629 19.6373 13.0136 20.625 15.5 20.625ZM15.5 20.625C19.2744 20.625 22.5725 22.05 24.9181 24.4181C26.3088 25.8281 27.3492 27.5447 27.9556 29.43M15.5 20.625C8 20.625 2.375 26.25 2.375 33.75V43.125H21.125M23 35.295L30.8563 41.25L43.625 24.375" stroke="#00A6A6" stroke-width="2.66667"/>
</svg>
