<svg width="32" height="32" viewBox="0 0 32 32" fill="none" xmlns="http://www.w3.org/2000/svg">
<path d="M26.52 14.3333C26.6133 14.88 26.6667 15.4267 26.6667 16C26.6667 21.88 21.88 26.6667 16 26.6667C10.12 26.6667 5.33332 21.88 5.33332 16C5.33332 15.9333 5.34666 15.8667 5.33332 15.8133C8.79999 14.5067 11.5867 11.8267 12.9867 8.41333C17.4933 13.9333 23.6133 13.3867 24.9733 13.2267L23.7867 10.6533C23.6133 10.6667 17.6267 11.16 14.2133 5.50667C15.56 5.29333 16.4933 5.30667 17.6667 5.49333C21.0267 3.96 20.24 4.30667 21.3467 3.81333C19.6678 3.05044 17.844 2.65929 16 2.66667C8.63999 2.66667 2.66666 8.64 2.66666 16C2.66666 23.36 8.63999 29.3333 16 29.3333C23.36 29.3333 29.3333 23.36 29.3333 16C29.3333 14.0933 28.9333 12.2933 28.2133 10.6533L26.52 14.3333ZM10.7733 6.70667C9.93155 9.21383 8.19378 11.3219 5.89332 12.6267C6.73509 10.1195 8.47286 8.01139 10.7733 6.70667Z" fill="#00A6A6"/>
<path d="M20 19C20.9205 19 21.6667 18.2538 21.6667 17.3334C21.6667 16.4129 20.9205 15.6667 20 15.6667C19.0795 15.6667 18.3333 16.4129 18.3333 17.3334C18.3333 18.2538 19.0795 19 20 19Z" fill="#00A6A6"/>
<path d="M12 19C12.9205 19 13.6667 18.2538 13.6667 17.3334C13.6667 16.4129 12.9205 15.6667 12 15.6667C11.0795 15.6667 10.3333 16.4129 10.3333 17.3334C10.3333 18.2538 11.0795 19 12 19Z" fill="#00A6A6"/>
<path d="M30.6667 5.99998L27.4667 4.53331L26 1.33331L24.5333 4.53331L21.3333 5.99998L24.5333 7.46665L26 10.6666L27.4667 7.46665L30.6667 5.99998Z" fill="#00A6A6"/>
</svg>
