<svg width="22" height="22" viewBox="0 0 22 22" fill="none" xmlns="http://www.w3.org/2000/svg">
<path d="M19.2285 18.4443C19.9303 18.7881 20.5104 19.2715 20.9688 19.8945C21.4271 20.5175 21.7171 21.2194 21.8389 22H20.6572C20.5785 21.5918 20.4316 21.2122 20.2168 20.8613C20.002 20.5104 19.7406 20.2096 19.4326 19.959C19.1247 19.7083 18.7773 19.5078 18.3906 19.3574C18.0039 19.207 17.6029 19.1354 17.1875 19.1425C16.765 19.1425 16.3639 19.2142 15.9844 19.3574C15.6048 19.5006 15.2575 19.6976 14.9424 19.9482C14.6273 20.1989 14.3659 20.5032 14.1582 20.8613C13.9505 21.2194 13.8037 21.5989 13.7178 22H12.5361C12.6507 21.2265 12.9372 20.5283 13.3955 19.9052C13.8538 19.2822 14.4375 18.7952 15.1465 18.4443C14.7383 18.122 14.4232 17.7317 14.2012 17.2734C13.9792 16.8151 13.8646 16.3281 13.8574 15.8125C13.8574 15.4902 13.9004 15.1787 13.9863 14.8779C14.0723 14.5771 14.2012 14.2942 14.373 14.0293C14.5449 13.7643 14.749 13.528 14.9854 13.3203C15.2217 13.1126 15.4867 12.9371 15.7803 12.7939C15.5869 12.5146 15.3649 12.2675 15.1143 12.0527C14.8636 11.8379 14.5915 11.6481 14.2979 11.4834C14.0042 11.3187 13.6963 11.2005 13.374 11.1289C13.0518 11.0573 12.7188 11.0143 12.375 11C11.8021 11 11.2542 11.111 10.7314 11.333C10.2087 11.555 9.75391 11.8808 9.36719 12.3105C9.53906 12.776 9.625 13.2558 9.625 13.75C9.625 14.4088 9.47819 15.0283 9.18457 15.6084C8.89095 16.1884 8.47917 16.6754 7.94922 17.0693C8.41471 17.3056 8.83366 17.5957 9.20605 17.9394C9.57845 18.2832 9.90072 18.6699 10.1729 19.0996C10.445 19.5293 10.6491 19.9876 10.7852 20.4746C10.9212 20.9616 10.9928 21.47 11 22H9.625C9.625 21.4342 9.51758 20.9007 9.30273 20.3994C9.08789 19.8981 8.79427 19.4612 8.42188 19.0888C8.04948 18.7164 7.60905 18.4192 7.10059 18.1972C6.59212 17.9752 6.05859 17.8678 5.5 17.875C4.92708 17.875 4.39355 17.9824 3.89941 18.1972C3.40527 18.4121 2.96842 18.7057 2.58887 19.0781C2.20931 19.4505 1.91211 19.8909 1.69727 20.3994C1.48242 20.9078 1.375 21.4414 1.375 22H0C0 21.4772 0.0716146 20.9723 0.214844 20.4853C0.358073 19.9983 0.562174 19.54 0.827148 19.1103C1.09212 18.6806 1.41081 18.2939 1.7832 17.9502C2.1556 17.6064 2.57812 17.3128 3.05078 17.0693C2.52083 16.6754 2.10905 16.1884 1.81543 15.6084C1.52181 15.0283 1.375 14.4088 1.375 13.75C1.375 13.1842 1.48242 12.6507 1.69727 12.1494C1.91211 11.6481 2.20573 11.2112 2.57812 10.8388C2.95052 10.4664 3.38737 10.1692 3.88867 9.94724C4.38997 9.72523 4.92708 9.61781 5.5 9.62497C6.10872 9.62497 6.68522 9.75388 7.22949 10.0117C7.77376 10.2695 8.24642 10.6276 8.64746 11.0859C8.83366 10.9069 9.03418 10.7457 9.24902 10.6025C9.46387 10.4593 9.68945 10.3232 9.92578 10.1943C9.39583 9.80043 8.98405 9.31345 8.69043 8.73337C8.39681 8.15329 8.25 7.53382 8.25 6.87497C8.25 6.30921 8.35742 5.77569 8.57227 5.27438C8.78711 4.77308 9.08073 4.33623 9.45312 3.96384C9.82552 3.59144 10.2624 3.29424 10.7637 3.07224C11.265 2.85023 11.8021 2.74281 12.375 2.74997C12.9408 2.74997 13.4743 2.85739 13.9756 3.07224C14.4769 3.28708 14.9137 3.5807 15.2861 3.95309C15.6585 4.32549 15.9557 4.76592 16.1777 5.27438C16.3997 5.78285 16.5072 6.31638 16.5 6.87497C16.5 7.53382 16.3532 8.15329 16.0596 8.73337C15.766 9.31345 15.3542 9.80043 14.8242 10.1943C15.3255 10.4593 15.7767 10.7815 16.1777 11.1611C16.5788 11.5407 16.9189 11.9811 17.1982 12.4824C17.6566 12.4824 18.0863 12.5683 18.4873 12.7402C18.8883 12.9121 19.2428 13.152 19.5508 13.4599C19.8587 13.7679 20.0951 14.1188 20.2598 14.5127C20.4245 14.9065 20.5104 15.3398 20.5176 15.8125C20.5176 16.3281 20.4066 16.8151 20.1846 17.2734C19.9626 17.7317 19.6439 18.122 19.2285 18.4443ZM5.5 16.5C5.87956 16.5 6.23405 16.4284 6.56348 16.2851C6.8929 16.1419 7.18652 15.945 7.44434 15.6943C7.70215 15.4437 7.89909 15.1536 8.03516 14.8242C8.17122 14.4948 8.24284 14.1367 8.25 13.75C8.25 13.3704 8.17839 13.0159 8.03516 12.6865C7.89193 12.3571 7.69499 12.0634 7.44434 11.8056C7.19369 11.5478 6.90365 11.3509 6.57422 11.2148C6.24479 11.0787 5.88672 11.0071 5.5 11C5.12044 11 4.76595 11.0716 4.43652 11.2148C4.1071 11.358 3.81348 11.555 3.55566 11.8056C3.29785 12.0563 3.10091 12.3463 2.96484 12.6758C2.82878 13.0052 2.75716 13.3633 2.75 13.75C2.75 14.1295 2.82161 14.484 2.96484 14.8134C3.10807 15.1429 3.30501 15.4365 3.55566 15.6943C3.80632 15.9521 4.09635 16.1491 4.42578 16.2851C4.75521 16.4212 5.11328 16.4928 5.5 16.5ZM9.625 6.87497C9.625 7.25453 9.69661 7.60902 9.83984 7.93845C9.98307 8.26787 10.18 8.56149 10.4307 8.81931C10.6813 9.07712 10.9714 9.27406 11.3008 9.41013C11.6302 9.54619 11.9883 9.61781 12.375 9.62497C12.7546 9.62497 13.109 9.55335 13.4385 9.41013C13.7679 9.2669 14.0615 9.06996 14.3193 8.81931C14.5771 8.56865 14.7741 8.27862 14.9102 7.94919C15.0462 7.61976 15.1178 7.26169 15.125 6.87497C15.125 6.49541 15.0534 6.14092 14.9102 5.81149C14.7669 5.48207 14.57 5.18845 14.3193 4.93063C14.0687 4.67282 13.7786 4.47588 13.4492 4.33981C13.1198 4.20375 12.7617 4.13213 12.375 4.12497C11.9954 4.12497 11.641 4.19658 11.3115 4.33981C10.9821 4.48304 10.6885 4.67998 10.4307 4.93063C10.1729 5.18128 9.97591 5.47132 9.83984 5.80075C9.70378 6.13018 9.63216 6.48825 9.625 6.87497ZM17.1875 13.6425C16.8867 13.6425 16.6074 13.6998 16.3496 13.8144C16.0918 13.929 15.8626 14.083 15.6621 14.2763C15.4616 14.4697 15.304 14.6989 15.1895 14.9638C15.0749 15.2288 15.0176 15.5117 15.0176 15.8125C15.0176 16.1133 15.0749 16.3925 15.1895 16.6504C15.304 16.9082 15.458 17.1373 15.6514 17.3379C15.8447 17.5384 16.0739 17.6959 16.3389 17.8105C16.6038 17.9251 16.8867 17.9824 17.1875 17.9824C17.4883 17.9824 17.7676 17.9251 18.0254 17.8105C18.2832 17.6959 18.5124 17.542 18.7129 17.3486C18.9134 17.1552 19.071 16.9261 19.1855 16.6611C19.3001 16.3961 19.3574 16.1133 19.3574 15.8125C19.3574 15.5117 19.3001 15.2324 19.1855 14.9746C19.071 14.7168 18.917 14.4876 18.7236 14.2871C18.5303 14.0866 18.3011 13.929 18.0361 13.8144C17.7712 13.6998 17.4883 13.6425 17.1875 13.6425Z" fill="#00A6A6"/>
</svg>
