<svg width="25" height="25" viewBox="0 0 25 25" fill="none" xmlns="http://www.w3.org/2000/svg">
<path d="M12.5 21.875C12.3247 21.8753 12.1496 21.8638 11.9758 21.8406C10.3707 19.2676 9.48177 16.3127 9.40079 13.2813H23.3984C23.4172 13.0227 23.4375 12.7633 23.4375 12.5C23.4375 10.3368 22.796 8.22212 21.5942 6.42346C20.3924 4.62479 18.6842 3.22291 16.6856 2.39507C14.687 1.56724 12.4879 1.35064 10.3662 1.77267C8.24454 2.19469 6.29566 3.23639 4.76602 4.76602C3.23639 6.29566 2.19469 8.24454 1.77267 10.3662C1.35064 12.4879 1.56724 14.687 2.39507 16.6856C3.22291 18.6842 4.62479 20.3924 6.42346 21.5942C8.22212 22.796 10.3368 23.4375 12.5 23.4375V21.875ZM21.8359 11.7188H17.1586C17.0753 8.84391 16.3398 6.02558 15.0078 3.47657C16.8505 3.99053 18.492 5.05544 19.7124 6.52857C20.9328 8.0017 21.6737 9.81267 21.8359 11.7188ZM13.0234 3.15938C14.6288 5.73229 15.518 8.68719 15.5992 11.7188H9.40079C9.48201 8.68719 10.3712 5.73229 11.9766 3.15938C12.3246 3.11409 12.677 3.11409 13.025 3.15938M9.99297 3.47579C8.66059 6.02497 7.92488 8.84358 7.84141 11.7188H3.16407C3.32628 9.81267 4.06724 8.0017 5.28764 6.52857C6.50803 5.05544 8.14955 3.99053 9.99219 3.47657M3.16407 13.2813H7.84141C7.92475 16.1561 8.66019 18.9744 9.99219 21.5234C8.14955 21.0095 6.50803 19.9446 5.28764 18.4714C4.06724 16.9983 3.32628 15.1873 3.16407 13.2813Z" fill="#007286"/>
<path fill-rule="evenodd" clip-rule="evenodd" d="M19.5312 19.5312L23.4375 21.0938V19.5312L19.5312 17.5781V15.625C19.5312 15.4178 19.4489 15.2191 19.3024 15.0726C19.1559 14.9261 18.9572 14.8438 18.75 14.8438C18.5428 14.8438 18.3441 14.9261 18.1976 15.0726C18.0511 15.2191 17.9688 15.4178 17.9688 15.625V17.5781L14.0625 19.5312V21.0938L17.9688 19.5312V22.2656L16.4062 23.4375V24.2188L18.75 23.4375L21.0938 24.2188V23.4375L19.5312 22.2656V19.5312Z" fill="#007286"/>
</svg>
