<svg width="22" height="22" viewBox="0 0 22 22" fill="none" xmlns="http://www.w3.org/2000/svg">
<path d="M21.7959 15.6085L15.8125 21.6026L12.9229 18.7022L13.8896 17.7354L15.8125 19.6476L20.8291 14.6417L21.7959 15.6085ZM7.90625 15.7052C8.37891 15.9415 8.80501 16.2315 9.18457 16.5753C9.56413 16.919 9.88639 17.3022 10.1514 17.7247C10.4163 18.1472 10.624 18.6056 10.7744 19.0997C10.9248 19.5938 11 20.1023 11 20.6251H9.625C9.625 20.0593 9.51758 19.5258 9.30273 19.0245C9.08789 18.5232 8.79427 18.0864 8.42188 17.714C8.04948 17.3416 7.60905 17.0444 7.10059 16.8224C6.59212 16.6004 6.05859 16.4929 5.5 16.5001C4.92708 16.5001 4.39355 16.6075 3.89941 16.8224C3.40527 17.0372 2.96842 17.3308 2.58887 17.7032C2.20931 18.0756 1.91211 18.516 1.69727 19.0245C1.48242 19.533 1.375 20.0665 1.375 20.6251H0C0 20.1023 0.0716146 19.5938 0.214844 19.0997C0.358073 18.6056 0.565755 18.1472 0.837891 17.7247C1.11003 17.3022 1.43587 16.919 1.81543 16.5753C2.19499 16.2315 2.62109 15.9415 3.09375 15.7052C2.55664 15.3185 2.1377 14.8351 1.83691 14.255C1.53613 13.6749 1.38216 13.0483 1.375 12.3751C1.375 11.8093 1.48242 11.2758 1.69727 10.7745C1.91211 10.2732 2.20573 9.83635 2.57812 9.46396C2.95052 9.09156 3.38737 8.79436 3.88867 8.57236C4.38997 8.35035 4.92708 8.24293 5.5 8.25009C6.17318 8.25009 6.7998 8.40048 7.37988 8.70126C7.95996 9.00204 8.44336 9.42457 8.83008 9.96884C9.10221 9.42457 9.45312 8.93759 9.88281 8.5079C10.3125 8.07822 10.7995 7.72731 11.3438 7.45517C10.8066 7.06845 10.3877 6.58505 10.0869 6.00497C9.78613 5.4249 9.63216 4.79827 9.625 4.12509C9.625 3.55934 9.73242 3.02581 9.94727 2.52451C10.1621 2.0232 10.4557 1.58635 10.8281 1.21396C11.2005 0.841563 11.6374 0.544362 12.1387 0.322357C12.64 0.100352 13.1771 -0.00706991 13.75 9.15527e-05C14.3158 9.15527e-05 14.8493 0.107513 15.3506 0.322357C15.8519 0.537201 16.2887 0.830821 16.6611 1.20322C17.0335 1.57561 17.3307 2.01604 17.5527 2.52451C17.7747 3.03297 17.8822 3.5665 17.875 4.12509C17.875 4.79827 17.7246 5.4249 17.4238 6.00497C17.123 6.58505 16.7005 7.06845 16.1562 7.45517C16.6289 7.6915 17.055 7.98154 17.4346 8.32529C17.8141 8.66904 18.1364 9.05217 18.4014 9.4747C18.6663 9.89723 18.874 10.3556 19.0244 10.8497C19.1748 11.3438 19.25 11.8523 19.25 12.3751H17.875C17.875 11.8093 17.7676 11.2758 17.5527 10.7745C17.3379 10.2732 17.0443 9.83635 16.6719 9.46396C16.2995 9.09156 15.859 8.79436 15.3506 8.57236C14.8421 8.35035 14.3086 8.24293 13.75 8.25009C13.1771 8.25009 12.6436 8.35751 12.1494 8.57236C11.6553 8.7872 11.2184 9.08082 10.8389 9.45322C10.4593 9.82561 10.1621 10.266 9.94727 10.7745C9.73242 11.283 9.625 11.8165 9.625 12.3751C9.625 13.0483 9.47461 13.6749 9.17383 14.255C8.87305 14.8351 8.45052 15.3185 7.90625 15.7052ZM11 4.12509C11 4.50465 11.0716 4.85914 11.2148 5.18857C11.3581 5.518 11.555 5.81161 11.8057 6.06943C12.0563 6.32724 12.3464 6.52418 12.6758 6.66025C13.0052 6.79632 13.3633 6.86793 13.75 6.87509C14.1296 6.87509 14.484 6.80348 14.8135 6.66025C15.1429 6.51702 15.4365 6.32008 15.6943 6.06943C15.9521 5.81878 16.1491 5.52874 16.2852 5.19931C16.4212 4.86988 16.4928 4.51181 16.5 4.12509C16.5 3.74553 16.4284 3.39104 16.2852 3.06161C16.1419 2.73219 15.945 2.43857 15.6943 2.18076C15.4437 1.92294 15.1536 1.726 14.8242 1.58994C14.4948 1.45387 14.1367 1.38225 13.75 1.37509C13.3704 1.37509 13.016 1.44671 12.6865 1.58994C12.3571 1.73316 12.0635 1.9301 11.8057 2.18076C11.5479 2.43141 11.3509 2.72145 11.2148 3.05087C11.0788 3.3803 11.0072 3.73837 11 4.12509ZM2.75 12.3751C2.75 12.7546 2.82161 13.1091 2.96484 13.4386C3.10807 13.768 3.30501 14.0616 3.55566 14.3194C3.80632 14.5772 4.09635 14.7742 4.42578 14.9102C4.75521 15.0463 5.11328 15.1179 5.5 15.1251C5.87956 15.1251 6.23405 15.0535 6.56348 14.9102C6.8929 14.767 7.18652 14.5701 7.44434 14.3194C7.70215 14.0688 7.89909 13.7787 8.03516 13.4493C8.17122 13.1199 8.24284 12.7618 8.25 12.3751C8.25 11.9955 8.17839 11.641 8.03516 11.3116C7.89193 10.9822 7.69499 10.6886 7.44434 10.4308C7.19368 10.1729 6.90365 9.976 6.57422 9.83994C6.24479 9.70387 5.88672 9.63225 5.5 9.62509C5.12044 9.62509 4.76595 9.69671 4.43652 9.83994C4.1071 9.98316 3.81348 10.1801 3.55566 10.4308C3.29785 10.6814 3.10091 10.9714 2.96484 11.3009C2.82878 11.6303 2.75716 11.9884 2.75 12.3751Z" fill="#00A6A6"/>
</svg>
