<svg width="42" height="43" viewBox="0 0 42 43" fill="none" xmlns="http://www.w3.org/2000/svg">
<path d="M11 41.5H31" stroke="#00A6A6" stroke-width="2" stroke-linecap="round" stroke-linejoin="round"/>
<path d="M1 31.5V5.5C1 4.43913 1.42143 3.42172 2.17157 2.67157C2.92172 1.92143 3.93913 1.5 5 1.5H37C38.0609 1.5 39.0783 1.92143 39.8284 2.67157C40.5786 3.42172 41 4.43913 41 5.5V31.5C41 32.5609 40.5786 33.5783 39.8284 34.3284C39.0783 35.0786 38.0609 35.5 37 35.5H5C3.93913 35.5 2.92172 35.0786 2.17157 34.3284C1.42143 33.5783 1 32.5609 1 31.5Z" stroke="#00A6A6" stroke-width="2"/>
<path d="M15 18.5L19 22.5L27 14.5" stroke="#00A6A6" stroke-width="2" stroke-linecap="round" stroke-linejoin="round"/>
</svg>
