<svg width="24" height="24" viewBox="0 0 24 24" fill="none" xmlns="http://www.w3.org/2000/svg">
<path fill-rule="evenodd" clip-rule="evenodd" d="M16 6.922V13.599C16 14.3245 15.726 14.899 15.2755 15.2805C14.836 15.652 14.269 15.8055 13.7265 15.7825C13.0995 15.7565 12.4445 15.484 12.0045 14.976C11.891 15.891 12.218 16.4995 12.3665 16.66L12.7065 17.0265L11.9735 17.7065L11.6335 17.34C11.2265 16.901 10.7895 15.8665 11.069 14.515C10.6412 14.6046 10.1997 14.6056 9.7715 14.518C9.323 14.423 8.882 14.2185 8.548 13.875C8.206 13.5235 8 13.05 8 12.48C8 11.658 8.2935 11.064 8.818 10.63C9.303 10.2285 9.9615 9.9875 10.6275 9.772C10.7835 9.722 10.9428 9.6715 11.1055 9.6205C12.375 9.222 13.8175 8.769 15.177 7.619L16 6.922ZM12.4805 13.568C12.691 13.182 12.9805 12.769 13.3715 12.3345L13.7065 11.963L12.963 11.294L12.628 11.6655C12.133 12.2155 11.772 12.7505 11.516 13.258C11.14 13.534 10.535 13.6575 9.9785 13.5395C9.677 13.4755 9.4305 13.348 9.2645 13.1775C9.1065 13.0155 9 12.7935 9 12.4795C9 11.9365 9.175 11.632 9.4555 11.3995C9.775 11.1355 10.2575 10.9425 10.9355 10.723C11.0832 10.6757 11.2375 10.6268 11.3985 10.5765C12.438 10.252 13.7285 9.849 15 9.001V13.599C15 14.0565 14.8365 14.342 14.63 14.5165C14.4125 14.7005 14.1035 14.7975 13.7685 14.7835C13.1045 14.756 12.5135 14.3215 12.4805 13.568Z" fill="#00A6A6"/>
<path fill-rule="evenodd" clip-rule="evenodd" d="M12 20.5L11.782 20.95L11.78 20.949L11.774 20.946L11.7525 20.9355L11.6725 20.8955C11.6035 20.8605 11.5035 20.8085 11.377 20.7405C9.87857 19.9295 8.46979 18.9628 7.174 17.8565C4.892 15.893 2.5 12.9815 2.5 9.362C2.5 7.7355 3.0385 6.16 3.9605 4.982C4.8855 3.8015 6.216 3 7.7815 3C9.6395 3 11.05 4.0535 12 5.539C12.9495 4.054 14.36 3 16.219 3C17.784 3 19.1145 3.8015 20.039 4.9825C20.962 6.16 21.5 7.735 21.5 9.3625C21.5 12.844 19.104 15.756 16.8295 17.7485C15.447 18.9498 13.9415 20.0016 12.338 20.8865L12.2585 20.929L12.237 20.9405L12.2315 20.9435L12.229 20.9445L12 20.5ZM4.748 5.5985C3.9705 6.5915 3.5 7.947 3.5 9.362C3.5 12.533 5.608 15.1905 7.826 17.0985C9.10823 18.1924 10.5056 19.1437 11.9935 19.9355L12.1405 19.8535C13.5749 19.0365 14.9248 18.0795 16.1705 16.9965C18.3955 15.0465 20.5 12.39 20.5 9.3615C20.5 7.9465 20.0295 6.5915 19.252 5.5985C18.477 4.609 17.417 4 16.219 4C14.562 4 13.279 5.0835 12.449 6.78L12 7.6985L11.551 6.781C10.721 5.0835 9.438 4 7.781 4C6.583 4 5.523 4.609 4.748 5.5985Z" fill="#00A6A6"/>
<path d="M12 20.5L12.229 20.9445L12.007 21.0585L11.782 20.95L12 20.5Z" fill="#00A6A6"/>
</svg>
