<svg width="39" height="43" viewBox="0 0 39 43" fill="none" xmlns="http://www.w3.org/2000/svg">
<path d="M34.953 0.500028C34.4193 0.499913 33.8911 0.606853 33.3995 0.814518C32.9079 1.02218 32.463 1.32635 32.091 1.70903L31.5015 2.31653L30.906 1.70903C30.5341 1.32619 30.0892 1.02186 29.5976 0.814042C29.106 0.606224 28.5777 0.499146 28.044 0.499146C27.5103 0.499146 26.982 0.606224 26.4904 0.814042C25.9988 1.02186 25.5539 1.32619 25.182 1.70903C24.4232 2.49247 23.9989 3.54036 23.9989 4.63103C23.9989 5.72169 24.4232 6.76958 25.182 7.55303L31.5015 14L37.815 7.55303C38.5738 6.76958 38.9981 5.72169 38.9981 4.63103C38.9981 3.54036 38.5738 2.49247 37.815 1.70903C37.443 1.32635 36.9981 1.02218 36.5065 0.814518C36.0149 0.606853 35.4867 0.499913 34.953 0.500028ZM29.733 24.5H16.6245L11.796 6.44753C11.3697 4.92688 10.3611 3.63561 8.98888 2.85383C7.61669 2.07205 5.99159 1.8628 4.46611 2.27146C2.94063 2.68012 1.63778 3.67375 0.840173 5.0368C0.0425634 6.39986 -0.185483 8.02242 0.2055 9.55253L6.8175 34.2755C6.98826 34.9136 7.36485 35.4776 7.88884 35.8798C8.41284 36.282 9.05493 36.5 9.7155 36.5H22.5V39.5H0V42.5H22.5C23.2956 42.5 24.0587 42.184 24.6213 41.6213C25.1839 41.0587 25.5 40.2957 25.5 39.5V36.5H30C30.8382 36.4989 31.6669 36.3223 32.4327 35.9818C33.1986 35.6412 33.8848 35.1441 34.447 34.5225C35.0093 33.9009 35.4353 33.1685 35.6976 32.3724C35.9599 31.5763 36.0527 30.7341 35.97 29.9C35.7781 28.3898 35.0354 27.0035 33.8845 26.007C32.7335 25.0104 31.2552 24.4738 29.733 24.5ZM30 33.5H9.717L3.102 8.77703C3.00006 8.39646 2.97408 7.99953 3.02554 7.60892C3.077 7.21831 3.20489 6.84166 3.40191 6.50047C3.59894 6.15929 3.86123 5.86025 4.17382 5.62043C4.48641 5.38062 4.84318 5.20472 5.22375 5.10278C5.60432 5.00084 6.00124 4.97486 6.39186 5.02632C6.78247 5.07778 7.15912 5.20567 7.5003 5.40269C7.84149 5.59971 8.14053 5.86201 8.38035 6.1746C8.62016 6.48719 8.79606 6.84396 8.898 7.22453L14.3205 27.5H30C30.7956 27.5 31.5587 27.8161 32.1213 28.3787C32.6839 28.9413 33 29.7044 33 30.5C33 31.2957 32.6839 32.0587 32.1213 32.6213C31.5587 33.184 30.7956 33.5 30 33.5Z" fill="#00A6A6"/>
</svg>
