<svg width="30" height="30" viewBox="0 0 30 30" fill="none" xmlns="http://www.w3.org/2000/svg">
<path d="M13.7563 2.5L22.8788 5.35C23.1332 5.42943 23.3556 5.5881 23.5134 5.80286C23.6713 6.01762 23.7564 6.27721 23.7563 6.54375V8.75H26.2563C26.5878 8.75 26.9057 8.8817 27.1401 9.11612C27.3746 9.35054 27.5063 9.66848 27.5063 10V20C27.5063 20.3315 27.3746 20.6495 27.1401 20.8839C26.9057 21.1183 26.5878 21.25 26.2563 21.25L22.2313 21.2512C21.7475 21.8887 21.16 22.4512 20.4813 22.9137L13.7563 27.5L7.03126 22.915C6.02191 22.2268 5.19595 21.3025 4.62518 20.2224C4.05442 19.1423 3.75613 17.9391 3.75626 16.7175V6.54375C3.75641 6.27743 3.84161 6.01811 3.99946 5.80361C4.1573 5.5891 4.37953 5.43061 4.63376 5.35125L13.7563 2.5ZM13.7563 5.1175L6.25626 7.4625V16.7175C6.25608 17.4828 6.43157 18.2379 6.76921 18.9247C7.10686 19.6114 7.59764 20.2115 8.20376 20.6787L8.44001 20.8488L13.7563 24.4738L18.4838 21.25H12.5063C12.1747 21.25 11.8568 21.1183 11.6224 20.8839C11.388 20.6495 11.2563 20.3315 11.2563 20V10C11.2563 9.66848 11.388 9.35054 11.6224 9.11612C11.8568 8.8817 12.1747 8.75 12.5063 8.75H21.2563V7.4625L13.7563 5.1175ZM13.7563 15V18.75H25.0063V15H13.7563ZM13.7563 12.5H25.0063V11.25H13.7563V12.5Z" fill="#00A6A6"/>
</svg>
