<svg width="40" height="39" viewBox="0 0 40 39" fill="none" xmlns="http://www.w3.org/2000/svg">
<path d="M2 19.5C2 21.8638 2.46558 24.2044 3.37017 26.3883C4.27475 28.5722 5.60062 30.5565 7.27208 32.2279C8.94353 33.8994 10.9278 35.2252 13.1117 36.1298C15.2956 37.0344 17.6362 37.5 20 37.5C22.3638 37.5 24.7044 37.0344 26.8883 36.1298C29.0722 35.2252 31.0565 33.8994 32.7279 32.2279C34.3994 30.5565 35.7252 28.5722 36.6298 26.3883C37.5344 24.2044 38 21.8638 38 19.5C38 14.7261 36.1036 10.1477 32.7279 6.77208C29.3523 3.39642 24.7739 1.5 20 1.5C15.2261 1.5 10.6477 3.39642 7.27208 6.77208C3.89642 10.1477 2 14.7261 2 19.5Z" stroke="#00A6A6" stroke-width="2.66667" stroke-linecap="round" stroke-linejoin="round"/>
<path d="M20 9.5V19.5L26 25.5" stroke="#00A6A6" stroke-width="2.66667" stroke-linecap="round" stroke-linejoin="round"/>
</svg>
