<svg width="23" height="23" viewBox="0 0 23 23" fill="none" xmlns="http://www.w3.org/2000/svg">
<path d="M7.1875 3.59375C3.62106 3.59375 0.71875 6.49534 0.71875 10.0625V10.7812C0.71875 11.3347 0.935812 11.8357 1.28153 12.2188C0.921778 12.6113 0.721142 13.1238 0.71875 13.6562V14.375C0.71875 17.1487 2.97563 19.4062 5.75 19.4062H17.25C20.0244 19.4062 22.2812 17.1487 22.2812 14.375V13.6562C22.2812 13.1028 22.0642 12.6018 21.7185 12.2188C22.0642 11.8357 22.2812 11.3347 22.2812 10.7812V10.0625C22.2812 6.49534 19.3789 3.59375 15.8125 3.59375H7.1875ZM7.1875 5.03125H15.8125C17.8243 5.03125 19.5593 6.22006 20.3636 7.92997C20.2846 7.92134 20.2062 7.90625 20.125 7.90625C19.6866 7.90625 19.2841 8.03562 18.9463 8.25844C18.715 7.92776 18.4074 7.65774 18.0496 7.4713C17.6917 7.28486 17.2941 7.18751 16.8906 7.1875C16.3444 7.1875 15.8412 7.36719 15.4316 7.66187C15.2061 7.29832 14.8919 6.99808 14.5185 6.78937C14.145 6.58065 13.7247 6.47032 13.2969 6.46875C12.5925 6.46875 11.96 6.76344 11.5 7.23063C11.2663 6.99034 10.987 6.79916 10.6785 6.66833C10.3699 6.53749 10.0383 6.46964 9.70312 6.46875C8.80469 6.46875 8.01406 6.95031 7.56844 7.66187C7.15875 7.36719 6.65562 7.1875 6.10938 7.1875C5.26125 7.1875 4.50656 7.61156 4.05375 8.25844C3.71594 8.03562 3.31344 7.90625 2.875 7.90625C2.79378 7.90625 2.71544 7.92062 2.63637 7.92997C3.44137 6.22006 5.17572 5.03125 7.1875 5.03125ZM9.70312 7.90625C10.2997 7.90625 10.7812 8.38781 10.7812 8.98438V10.7812C10.7812 11.1766 10.4578 11.5 10.0625 11.5H9.34375C8.94844 11.5 8.625 11.1766 8.625 10.7812V8.98438C8.625 8.38781 9.10656 7.90625 9.70312 7.90625ZM13.2969 7.90625C13.8934 7.90625 14.375 8.38781 14.375 8.98438V10.7812C14.375 11.1766 14.0516 11.5 13.6562 11.5H12.9375C12.5422 11.5 12.2188 11.1766 12.2188 10.7812V8.98438C12.2188 8.38781 12.7003 7.90625 13.2969 7.90625ZM6.10938 8.625C6.70594 8.625 7.1875 9.10656 7.1875 9.70312V10.7812C7.1875 11.1766 6.86406 11.5 6.46875 11.5H5.75C5.35469 11.5 5.03125 11.1766 5.03125 10.7812V9.70312C5.03125 9.10656 5.51281 8.625 6.10938 8.625ZM16.8906 8.625C17.4872 8.625 17.9688 9.10656 17.9688 9.70312V10.7812C17.9688 11.1766 17.6453 11.5 17.25 11.5H16.5312C16.1359 11.5 15.8125 11.1766 15.8125 10.7812V9.70312C15.8125 9.10656 16.2941 8.625 16.8906 8.625ZM2.875 9.34375C3.27031 9.34375 3.59375 9.66719 3.59375 10.0625V10.7812C3.59375 11.1766 3.27031 11.5 2.875 11.5C2.47969 11.5 2.15625 11.1766 2.15625 10.7812V10.0625C2.15625 9.66719 2.47969 9.34375 2.875 9.34375ZM20.125 9.34375C20.5203 9.34375 20.8438 9.66719 20.8438 10.0625V10.7812C20.8438 11.1766 20.5203 11.5 20.125 11.5C19.7297 11.5 19.4062 11.1766 19.4062 10.7812V10.0625C19.4062 9.66719 19.7297 9.34375 20.125 9.34375ZM2.875 12.9375C3.27031 12.9375 3.59375 13.2609 3.59375 13.6562C3.59375 14.0516 3.27031 14.375 2.875 14.375C2.47969 14.375 2.15625 14.0516 2.15625 13.6562C2.15625 13.2609 2.47969 12.9375 2.875 12.9375ZM5.75 12.9375H6.46875C6.86406 12.9375 7.1875 13.2609 7.1875 13.6562V14.375C7.1875 14.7703 6.86406 15.0938 6.46875 15.0938C5.67812 15.0938 5.03125 14.4469 5.03125 13.6562C5.03125 13.2609 5.35469 12.9375 5.75 12.9375ZM9.34375 12.9375H10.0625C10.4578 12.9375 10.7812 13.2609 10.7812 13.6562V14.375C10.7812 14.7703 10.4578 15.0938 10.0625 15.0938H9.34375C8.94844 15.0938 8.625 14.7703 8.625 14.375V13.6562C8.625 13.2609 8.94844 12.9375 9.34375 12.9375ZM12.9375 12.9375H13.6562C14.0516 12.9375 14.375 13.2609 14.375 13.6562V14.375C14.375 14.7703 14.0516 15.0938 13.6562 15.0938H12.9375C12.5422 15.0938 12.2188 14.7703 12.2188 14.375V13.6562C12.2188 13.2609 12.5422 12.9375 12.9375 12.9375ZM16.5312 12.9375H17.25C17.6453 12.9375 17.9688 13.2609 17.9688 13.6562C17.9688 14.4469 17.3219 15.0938 16.5312 15.0938C16.1359 15.0938 15.8125 14.7703 15.8125 14.375V13.6562C15.8125 13.2609 16.1359 12.9375 16.5312 12.9375ZM20.125 12.9375C20.5203 12.9375 20.8438 13.2609 20.8438 13.6562C20.8438 14.0516 20.5203 14.375 20.125 14.375C19.7297 14.375 19.4062 14.0516 19.4062 13.6562C19.4062 13.2609 19.7297 12.9375 20.125 12.9375ZM4.16875 15.3669C4.70063 16.0712 5.52719 16.5312 6.46875 16.5312C7.02219 16.5312 7.52531 16.3156 7.90625 15.9706C8.28719 16.3156 8.79031 16.5312 9.34375 16.5312H10.0625C10.6159 16.5312 11.1191 16.3156 11.5 15.9706C11.8809 16.3156 12.3841 16.5312 12.9375 16.5312H13.6562C14.2097 16.5312 14.7128 16.3156 15.0938 15.9706C15.4747 16.3156 15.9778 16.5312 16.5312 16.5312C17.4728 16.5312 18.2994 16.0712 18.8313 15.3669C19.1906 15.6472 19.6362 15.8125 20.125 15.8125C20.275 15.8125 20.4211 15.7974 20.5634 15.7672C20.2885 16.4191 19.8276 16.9755 19.2383 17.3671C18.649 17.7586 17.9575 17.9679 17.25 17.9688H5.75C5.04251 17.9679 4.35095 17.7586 3.76167 17.3671C3.17239 16.9755 2.71151 16.4191 2.43656 15.7672C2.57888 15.7969 2.72502 15.812 2.875 15.8125C3.36375 15.8125 3.80938 15.6472 4.16875 15.3669Z" fill="#00A6A6"/>
</svg>
