<svg width="23" height="23" viewBox="0 0 23 23" fill="none" xmlns="http://www.w3.org/2000/svg">
<path d="M22.1786 22.1457H21.3572C20.4857 22.1457 19.65 21.7995 19.0338 21.1833C18.4176 20.5672 18.0714 19.7314 18.0714 18.86C18.0714 19.7314 17.7253 20.5672 17.1091 21.1833C16.4929 21.7995 15.6572 22.1457 14.7857 22.1457C13.9143 22.1457 13.0786 21.7995 12.4624 21.1833C11.8462 20.5672 11.5 19.7314 11.5 18.86C11.5 19.7314 11.1538 20.5672 10.5377 21.1833C9.92146 21.7995 9.08572 22.1457 8.2143 22.1457C7.34287 22.1457 6.50714 21.7995 5.89095 21.1833C5.27476 20.5672 4.92858 19.7314 4.92858 18.86C4.92858 19.7314 4.58241 20.5672 3.96622 21.1833C3.35003 21.7995 2.5143 22.1457 1.64287 22.1457H0.821442M16.4286 15.5743C15.5825 14.5456 14.519 13.7171 13.3146 13.1483C12.1102 12.5794 10.7948 12.2844 9.46287 12.2844C8.13092 12.2844 6.81549 12.5794 5.61111 13.1483C4.40672 13.7171 3.34327 14.5456 2.49716 15.5743" stroke="#007286" stroke-linecap="round" stroke-linejoin="round"/>
<path d="M10.6786 12.3707C10.7771 8.65787 11.9107 5.27358 14.375 4.05787M9.46286 0.936437C10.5278 0.726739 11.6326 0.93358 12.5496 1.51433C13.4666 2.09507 14.1258 3.00547 14.3914 4.05787" stroke="#007286" stroke-linecap="round" stroke-linejoin="round"/>
<path d="M20.3879 4.6657C19.6317 3.84924 18.6035 3.33694 17.4963 3.22501C16.3892 3.11309 15.2792 3.40924 14.375 4.05784" stroke="#007286" stroke-linecap="round" stroke-linejoin="round"/>
<path d="M8.34573 5.81572C8.98949 4.8673 9.94369 4.17293 11.0441 3.85209C12.1446 3.53125 13.3224 3.60402 14.375 4.05786C15.4308 4.31607 16.3449 4.97453 16.9243 5.89417C17.5037 6.8138 17.7029 7.92261 17.48 8.98643" stroke="#007286" stroke-linecap="round" stroke-linejoin="round"/>
</svg>
