<svg width="49" height="32" viewBox="0 0 49 32" fill="none" xmlns="http://www.w3.org/2000/svg">
<path d="M40.667 0C41.7279 0 42.7453 0.421427 43.4954 1.17157C44.2456 1.92172 44.667 2.93913 44.667 4V24C44.667 26.22 42.887 28 40.667 28H48.667V32H0.666992V28H8.66699C7.60613 28 6.58871 27.5786 5.83856 26.8284C5.08842 26.0783 4.66699 25.0609 4.66699 24V4C4.66699 1.78 6.44699 0 8.66699 0H40.667ZM40.667 4H8.66699V24H40.667V4ZM24.667 16C29.087 16 32.667 17.8 32.667 20V22H16.667V20C16.667 17.8 20.247 16 24.667 16ZM24.667 6C25.7279 6 26.7453 6.42143 27.4954 7.17157C28.2456 7.92172 28.667 8.93913 28.667 10C28.667 11.0609 28.2456 12.0783 27.4954 12.8284C26.7453 13.5786 25.7279 14 24.667 14C22.447 14 20.667 12.22 20.667 10C20.667 7.78 22.467 6 24.667 6Z" fill="white"/>
</svg>
