<svg width="360" height="360" viewBox="0 0 360 360" fill="none" xmlns="http://www.w3.org/2000/svg">
<path d="M176.794 157.28C201.259 138.895 211.231 134.34 225.992 134.811C253.094 135.678 271.055 165.593 265.871 201.231C257.02 262.081 216.639 344.41 200.796 333.907C197.671 331.835 197.61 331.426 198.092 315.854C199.276 277.571 186.663 241.475 175.879 252.286C166.444 261.745 159.576 295.502 161.382 323.536C161.79 329.872 160.832 332.566 157.569 334.258C142.338 342.147 101.224 257.022 93.4171 201.437C90.022 177.262 97.0735 155.592 110.569 143.877V152.861C108.801 155.032 107.164 157.507 105.666 160.285C96.2804 177.7 97.2092 201.436 108.703 237.882C114.374 255.864 118.122 265.733 125.38 281.807C135.313 303.803 150.805 328.27 154.8 328.271C154.892 328.263 154.89 323.402 154.794 317.462C154.125 275.837 165.228 243.823 180.321 243.857C195.632 243.893 207.844 283.713 204.723 323.432C204.308 328.714 204.621 328.989 207.579 325.94C232.867 299.871 263.374 215.441 259.558 182.083C256.566 155.928 242.162 140.289 222.135 141.453C211.325 142.081 203.517 145.789 185.929 158.645C164.345 174.423 150.611 179.16 134.496 174.624V172.398C147.964 174.556 160.038 169.872 176.794 157.28ZM216.537 157.55C238.117 152.622 251.842 178.733 245.973 213.552C245.145 218.463 243.603 224.075 244.096 220.381C248.426 187.962 238.628 169.634 223.199 166.115C216.411 164.882 213.031 164.312 196.971 171.772C184.746 179.472 181.801 179.977 177.12 182.256C166.643 187.358 158.196 188.965 148.76 187.654C145.934 187.262 145.999 187.249 152.459 186.979C164.927 186.458 171.651 183.616 191.506 170.47C203.735 162.373 210.335 158.966 216.537 157.55ZM136.282 134.794C146.602 135.33 158.374 140.199 172.927 149.848C176.15 151.984 176.134 151.825 173.33 154.036C170.653 156.147 171.269 156.251 165.985 152.808C155.053 145.687 145.082 141.873 136.282 141.34V134.794Z" fill="#009FB0"/>
<path d="M139.117 90.1064H130.753C130.753 93.9137 125.938 98 119.999 98C114.06 97.9998 109.246 93.9136 109.246 90.1064H100.882L94.9989 25H112.83V86.2764H112.852C112.839 86.4027 112.83 86.5304 112.83 86.6592C112.83 89.4088 116.04 91.6385 119.999 91.6387C123.958 91.6387 127.169 89.4089 127.169 86.6592C127.169 86.5304 127.159 86.4027 127.145 86.2764H127.169V25H144.999L139.117 90.1064Z" fill="#009FB0"/>
<rect x="102.499" y="101.5" width="35" height="9" fill="#009FB0" stroke="#009FB0"/>
<path d="M117.999 83.8369C117.968 84.3673 118.152 84.8761 118.528 85.2511C118.902 85.6262 119.438 85.8369 119.999 85.8369C120.561 85.8369 121.096 85.6262 121.471 85.2511C121.846 84.8761 122.03 84.3673 121.999 83.8369C121.966 83.2563 121.933 82.6757 121.899 82.0951C121.299 71.644 120.699 61.193 120.099 50.7419C120.066 50.1613 120.033 49.5807 119.999 49.0001C119.966 49.5807 119.933 50.1613 119.899 50.7419C119.299 61.193 118.699 71.644 118.099 82.0951C118.066 82.6757 118.033 83.2563 117.999 83.8369Z" fill="#009FB0"/>
<path d="M125.89 176.997C125.964 176.982 125.952 177.026 125.962 177.051C125.888 177.012 125.974 177.146 125.992 177.218C126.024 177.303 126.061 177.382 126.094 177.474C126.163 177.638 126.228 177.822 126.289 177.993C126.817 179.53 126.978 181.411 125.81 183.258C124.665 185.153 121.985 186.201 119.932 186.153C119.894 186.153 119.858 186.154 119.823 186.156C119.426 186.174 119.234 186.192 118.985 186.233C118.739 186.275 118.371 186.431 117.951 186.782C117.103 187.48 116.199 188.735 115.278 190.079C115.073 190.379 114.864 190.685 114.652 191.006C114.482 190.664 114.327 190.326 114.191 189.979C113.598 188.414 113.273 186.708 113.896 184.795C114.351 182.877 117.125 180.754 119.601 180.838C119.71 180.835 119.819 180.834 119.926 180.834C120.965 180.823 121.507 180.862 122.373 180.521C123.244 180.167 124.27 179.148 125.206 177.857C125.314 177.716 125.425 177.555 125.537 177.409C125.594 177.325 125.65 177.254 125.712 177.174C125.741 177.145 125.777 177.089 125.812 177.06C125.836 177.032 125.846 177.022 125.89 176.997Z" fill="#009FB0"/>
<path d="M125.348 188.007C125.42 187.981 125.406 188.033 125.413 188.056C125.36 188.014 125.434 188.148 125.455 188.217C125.486 188.295 125.521 188.372 125.553 188.458C125.62 188.614 125.684 188.785 125.744 188.95C126.257 190.4 126.517 192.081 125.744 193.907C125.05 195.783 122.557 197.246 120.597 197.151C120.566 197.152 120.538 197.154 120.512 197.155C120.296 197.182 120.311 197.131 120.121 197.164C119.938 197.199 119.599 197.43 119.247 197.818C118.53 198.602 117.767 199.824 116.944 201.113C116.761 201.402 116.574 201.693 116.382 202C116.222 201.675 116.076 201.356 115.945 201.027C115.369 199.546 115.023 197.972 115.37 196.166C115.556 195.274 115.942 194.276 116.802 193.38C117.641 192.475 119.019 191.892 120.184 191.844C120.324 191.835 120.461 191.832 120.597 191.833C121.334 191.806 121.548 191.966 122.326 191.546C123.069 191.111 123.923 190.06 124.748 188.831C124.844 188.691 124.942 188.541 125.041 188.4C125.092 188.321 125.143 188.251 125.197 188.177C125.223 188.148 125.254 188.095 125.284 188.067C125.304 188.04 125.314 188.031 125.348 188.007Z" fill="#009FB0"/>
<path d="M125.308 200.012C125.385 199.973 125.369 200.037 125.374 200.058C125.335 200.011 125.406 200.15 125.432 200.216C125.467 200.292 125.504 200.37 125.54 200.452C125.613 200.608 125.684 200.768 125.75 200.933C126.318 202.338 126.662 203.901 126.161 205.698C125.822 207.481 123.378 209.597 121.108 209.457C121.105 209.457 121.103 209.457 121.101 209.458C121.143 209.432 121.186 209.432 120.999 209.5C120.811 209.572 120.535 209.769 120.202 210.201C119.521 211.084 118.783 212.311 117.947 213.592C117.761 213.882 117.571 214.166 117.374 214.469C117.205 214.15 117.048 213.841 116.905 213.518C116.273 212.073 115.874 210.556 116.035 208.831C116.129 207.973 116.357 207.024 117.04 206.036C117.682 205.047 119.126 204.092 120.512 203.991C120.716 203.969 120.914 203.961 121.108 203.963C121.352 203.97 121.404 204.002 121.557 204.028C121.705 204.052 122.004 203.965 122.358 203.688C123.08 203.134 123.883 202.039 124.71 200.831C124.807 200.687 124.905 200.543 125.006 200.4C125.057 200.325 125.109 200.252 125.163 200.181C125.19 200.15 125.22 200.1 125.249 200.073C125.268 200.046 125.28 200.035 125.308 200.012Z" fill="#009FB0"/>
<path d="M125.761 212.018C125.835 211.967 125.819 212.039 125.821 212.056C125.827 212.066 125.834 212.079 125.839 212.097C125.856 212.125 125.872 212.168 125.89 212.201C125.926 212.268 125.962 212.344 125.999 212.416C126.071 212.561 126.142 212.704 126.209 212.856C126.782 214.124 127.159 215.498 126.933 217.1C126.805 217.897 126.52 218.801 125.756 219.668C125.056 220.5 123.776 221.097 122.652 221.145C122.482 221.342 122.279 221.625 122.079 221.934C121.487 222.852 120.826 223.994 120.045 225.188C119.871 225.459 119.692 225.72 119.506 226C119.341 225.707 119.186 225.426 119.045 225.13C118.413 223.809 117.996 222.449 117.999 220.91C118.011 220.141 118.109 219.323 118.537 218.389C118.921 217.504 119.854 216.286 121.499 216C121.999 216 121.499 216 121.999 216C122.033 215.994 122.499 216 122.499 216C122.604 215.968 122.806 215.899 123.115 215.581C123.751 214.938 124.446 213.89 125.21 212.776C125.301 212.64 125.392 212.51 125.487 212.374C125.534 212.308 125.582 212.236 125.632 212.173C125.656 212.142 125.683 212.099 125.71 212.073C125.726 212.049 125.74 212.036 125.761 212.018ZM122.453 221.149C122.471 221.151 122.495 221.149 122.522 221.147C122.499 221.147 122.476 221.149 122.453 221.149Z" fill="#009FB0"/>
<path d="M126.555 225.018C126.557 224.989 126.63 225 126.615 225.013C126.615 225.022 126.613 225.031 126.612 225.042H126.617C126.625 225.051 126.632 225.067 126.64 225.088C126.658 225.115 126.675 225.154 126.694 225.188C126.731 225.25 126.768 225.325 126.806 225.391C126.88 225.53 126.953 225.664 127.023 225.805C127.614 226.994 128.022 228.245 127.998 229.691C127.972 230.416 127.866 231.205 127.358 232.122C126.992 232.878 125.897 233.842 124.652 234.085C124.491 234.339 124.311 234.663 124.122 235.006C123.597 235.958 122.976 237.076 122.22 238.222C122.052 238.483 121.878 238.732 121.696 239C121.53 238.722 121.373 238.459 121.229 238.178C120.58 236.936 120.138 235.65 120.022 234.253C119.972 233.543 119.99 232.816 120.22 231.965C120.489 231.187 120.796 229.864 122.755 229.038C123.125 228.905 123.521 228.842 123.886 228.835C123.957 228.755 124.03 228.668 124.102 228.575C124.672 227.832 125.302 226.814 126.032 225.742C126.119 225.614 126.207 225.489 126.298 225.357C126.343 225.296 126.389 225.224 126.437 225.166C126.461 225.133 126.486 225.095 126.512 225.069C126.526 225.047 126.54 225.03 126.555 225.018Z" fill="#009FB0"/>
<path d="M127.608 237C127.639 237.012 127.624 237.017 127.627 237.022C127.625 237.032 127.622 237.042 127.62 237.056C127.713 237.183 127.871 237.527 127.987 237.77C128.501 238.883 128.868 240.029 128.975 241.316C129.021 241.966 129.02 242.639 128.814 243.476C128.703 243.892 128.55 244.371 128.156 244.935C127.937 245.269 127.525 245.652 127.033 245.896C126.894 246.238 126.736 246.652 126.562 247.079C126.165 248.067 125.668 249.148 125.045 250.253C124.907 250.506 124.762 250.742 124.611 251C124.469 250.735 124.335 250.488 124.21 250.22C123.649 249.049 123.253 247.85 123.082 246.565C122.998 245.923 122.966 245.264 123.043 244.52C123.083 244.146 123.147 243.751 123.292 243.285C123.459 242.819 123.61 242.232 124.376 241.492C124.638 241.243 125.037 241.018 125.454 240.909C125.515 240.8 125.579 240.684 125.642 240.564C126.068 239.744 126.559 238.757 127.153 237.725C127.223 237.604 127.295 237.483 127.37 237.354C127.407 237.297 127.445 237.224 127.484 237.17C127.503 237.136 127.524 237.103 127.544 237.077C127.555 237.056 127.567 237.04 127.578 237.029C127.583 237.024 127.58 237.008 127.608 237Z" fill="#009FB0"/>
<path d="M129.474 250C129.581 250.121 129.723 250.449 129.839 250.68C130.335 251.726 130.7 252.795 130.885 253.944C130.975 254.525 131.028 255.108 130.983 255.806C130.957 256.157 130.919 256.524 130.768 257.039C130.687 257.298 130.581 257.613 130.324 258.018C130.24 258.153 130.112 258.318 129.947 258.481C129.929 258.548 129.91 258.616 129.891 258.686C129.773 259.132 129.632 259.619 129.464 260.126C129.128 261.132 128.529 262 128.37 263.255C128.242 263.503 128.246 264.25 128.105 264.5C127.97 264.245 127.44 263.512 127.319 263.255C126.778 262.144 126.386 260.999 126.171 259.823C126.064 259.226 125.999 258.632 125.999 257.98C126 257.654 126.015 257.319 126.063 256.941C126.123 256.549 126.155 256.181 126.448 255.451C126.546 255.233 126.659 254.974 126.945 254.617C127.06 254.469 127.245 254.293 127.475 254.14C127.554 253.941 127.637 253.725 127.726 253.505C128.079 252.622 128.512 251.65 129.052 250.652C129.185 250.433 129.305 250.102 129.474 250ZM128.81 259.097C128.72 259.112 128.626 259.122 128.529 259.123C128.626 259.125 128.72 259.115 128.81 259.097Z" fill="#009FB0"/>
<path d="M131.77 262.09C131.863 262.195 131.979 262.506 132.077 262.72C132.494 263.683 132.829 264.663 133.072 265.678C133.193 266.186 133.292 266.704 133.363 267.257C133.398 267.54 133.427 267.815 133.443 268.158C133.45 268.334 133.455 268.519 133.448 268.771C133.44 268.927 133.44 269.03 133.402 269.332C133.388 269.426 133.379 269.504 133.352 269.632C133.341 271.166 133.12 273.39 132.538 275.362C132.471 275.61 132.397 275.838 132.321 276.088C132.21 275.85 132.105 275.632 132.003 275.394C130.748 272.439 130.467 271.5 130.513 268.678C130.516 268.537 130.517 268.406 130.534 268.173C130.543 268.055 130.552 267.92 130.591 267.668C130.599 267.615 130.616 267.518 130.635 267.428C130.655 267.337 130.68 267.229 130.731 267.066C130.736 267.054 130.741 267.038 130.748 267.021C130.789 266.601 130.842 266.136 130.911 265.671C131.051 264.727 131.258 263.745 131.542 262.748C131.612 262.526 131.675 262.201 131.77 262.09ZM130.725 267.24C130.692 267.383 130.689 267.438 130.678 267.508C130.658 267.677 130.665 267.686 130.665 267.708C130.671 267.73 130.68 267.667 130.689 267.595C130.701 267.495 130.712 267.373 130.725 267.24ZM131.794 265.902C131.671 265.909 131.555 265.953 131.45 266.018C131.55 265.964 131.664 265.922 131.794 265.902Z" fill="#009FB0"/>
<path d="M127.999 145.033H125.124C125.908 144.582 126.662 144.028 127.364 143.348C127.589 143.142 127.801 142.916 127.999 142.676V145.033ZM127.999 136.284C125.684 139.456 122.976 138.855 119.673 139.682C119.586 139.698 119.498 139.717 119.41 139.735C116.993 140.266 114.765 141.401 112.976 143.387C112.608 143.751 112.279 144.197 111.999 144.693V116.052H127.999V136.284Z" fill="#009FB0"/>
<path d="M127.354 142C127.42 142.002 127.415 142.039 127.428 142.069C127.346 142.044 127.401 142.088 127.401 142.128C127.415 142.165 127.428 142.223 127.446 142.265C127.479 142.368 127.518 142.465 127.554 142.565C127.626 142.773 127.697 142.972 127.755 143.195C128.345 145.067 127.903 147.742 126.023 149.509C124.172 151.289 121.765 151.878 119.711 151.882C119.699 151.882 119.687 151.882 119.676 151.882C118.479 151.914 117.884 151.854 116.983 152.109C116.06 152.375 114.841 153.485 113.719 154.967C113.466 155.294 113.212 155.636 112.958 156C112.766 155.599 112.596 155.195 112.455 154.777C111.837 152.919 111.671 150.607 113.102 148.383C114.537 146.107 117.486 145.067 119.644 145.116C119.666 145.116 119.689 145.115 119.711 145.115C122.341 144.923 123.856 145.902 126.502 142.941C126.638 142.779 126.77 142.625 126.908 142.449C126.977 142.366 127.045 142.284 127.122 142.19C127.159 142.154 127.202 142.097 127.248 142.06C127.28 142.031 127.292 142.017 127.354 142Z" fill="#009FB0"/>
<path d="M126.788 154C126.859 153.997 126.852 154.036 126.865 154.064C126.761 154.039 126.871 154.166 126.886 154.25C126.92 154.347 126.959 154.438 126.995 154.535C127.068 154.731 127.14 154.922 127.202 155.126C127.784 156.877 127.599 159.29 125.855 161.127C124.139 162.965 121.573 163.644 119.487 163.639C119.464 163.639 119.442 163.64 119.42 163.64C118.295 163.694 117.875 163.593 116.936 163.97C116 164.373 114.853 165.564 113.769 167.003C113.526 167.319 113.28 167.651 113.033 168C112.842 167.619 112.673 167.236 112.528 166.845C111.904 165.081 111.642 163.011 112.83 160.844C113.982 158.604 117.086 157.28 119.342 157.354C119.391 157.354 119.439 157.354 119.487 157.354C121.952 157.222 123.434 157.9 125.97 154.915C126.1 154.76 126.227 154.606 126.361 154.437C126.428 154.354 126.495 154.276 126.569 154.186C126.604 154.152 126.645 154.095 126.689 154.062C126.718 154.032 126.729 154.021 126.788 154Z" fill="#009FB0"/>
<path d="M126.193 165.001C126.264 164.993 126.254 165.034 126.266 165.061C126.178 165.029 126.275 165.159 126.291 165.237C126.323 165.328 126.359 165.412 126.393 165.507C126.463 165.685 126.529 165.877 126.591 166.061C127.129 167.703 127.153 169.839 125.712 171.709C124.28 173.599 121.711 174.418 119.708 174.396C119.676 174.396 119.645 174.396 119.615 174.397C118.671 174.473 118.422 174.319 117.494 174.857C116.613 175.411 115.614 176.646 114.634 178.038C114.415 178.346 114.194 178.665 113.969 179C113.793 178.639 113.635 178.277 113.497 177.91C112.903 176.243 112.602 174.378 113.475 172.316C114.245 170.195 117.216 168.5 119.484 168.595C119.559 168.594 119.633 168.593 119.708 168.593C120.84 168.591 121.568 168.607 122.441 168.37C123.329 168.136 124.45 167.234 125.459 165.889C125.575 165.743 125.692 165.583 125.811 165.426C125.872 165.342 125.932 165.268 125.999 165.183C126.03 165.152 126.068 165.095 126.106 165.063C126.132 165.035 126.142 165.024 126.193 165.001Z" fill="#009FB0"/>
<path d="M134.791 274C136.74 280.994 139.158 287.895 142.143 294.679C143.288 297.02 144.552 299.332 145.915 301.545C144.319 299.494 142.806 297.318 141.402 295.094C138.647 290.328 136.194 285.448 133.999 280.476C134.492 278.617 134.683 276.6 134.694 275.177C134.72 275.049 134.73 274.971 134.744 274.878C134.782 274.575 134.782 274.472 134.789 274.315C134.793 274.198 134.792 274.095 134.791 274Z" fill="#009FB0"/>
</svg>
